<?xml version="1.0" standalone="no"?>
<!DOCTYPE svg PUBLIC "-//W3C//DTD SVG 1.1//EN" "http://www.w3.org/Graphics/SVG/1.1/DTD/svg11.dtd" >
<svg xmlns="http://www.w3.org/2000/svg">
<metadata>Created by Icons8</metadata>
<defs>
  <font id="lfshare" horiz-adv-x="1316.026217709806">
    <font-face font-family="lfshare"
      units-per-em="1024" ascent="896"
      descent="128"
      font-weight="500" />
    <missing-glyph horiz-adv-x="0" />
    <glyph glyph-name="7digital"
      unicode="&#xF100;"
      horiz-adv-x="1024" d="M241.86666666 826.40000001L700.98666666 828.96000001A10.24 10.24 0 0 0 710.2666666599999 823.2000000099999L869.0666666599999 498.2400000100001A10.24 10.24 0 0 0 869.0666666599999 489.6000000100001L566.6666666599999 -188.9599999899999L405.14666666 144.00000001A10.24 10.24 0 0 0 405.14666666 152.72000001L553.94666666 476.0000000100001L239.38666666 484.0000000100001z" />
    <glyph glyph-name="8tracks"
      unicode="&#xF101;"
      horiz-adv-x="1024" d="M297.6 431.12A261.04 261.04 0 1 1 558.48 170.0800000000001V244.56H465.2V170.0800000000001A168 168 0 1 0 178.32 288L179.12 288.8A167.12 167.12 0 0 0 297.68 337.92H726.4A260.64 260.64 0 1 1 726.4 859.28A261.12 261.12 0 0 1 465.36 597.9200000000001V524.16H558.48V597.9200000000001A168 168 0 1 0 726.48 431.04z" />
    <glyph glyph-name="amazon"
      unicode="&#xF102;"
      horiz-adv-x="1024" d="M1024.01736 332.7200000000001H276.33736Q262.97736 383.04 249.69736 433.36A33.84 33.84 0 0 1 217.13736 458.64H57.93736A35.92 35.92 0 0 1 57.93736 386.64H188.57736L294.17736 -12.08H367.69736C362.17736 8.8 356.65736 29.52 351.13736 50.5599999999999C353.85736 53.1999999999999 356.41736 55.92 359.13736 58.56L418.49736 -1.52L408.01736 -11.9200000000001H479.29736L468.81736 -1.4400000000001Q498.41736 28.72 528.09736 58.64Q557.85736 28.5599999999999 587.45736 -1.4400000000001L576.97736 -11.9200000000001H648.01736L637.53736 -1.4400000000001C657.3773600000001 18.64 677.1373600000001 38.5599999999999 696.9773600000001 58.64L756.3373600000001 -1.4400000000001L745.8573600000001 -11.9200000000001H817.05736L806.65736 -1.4400000000001Q836.2573600000001 28.72 865.93736 58.64L925.37736 -1.4400000000001L914.89736 -11.9200000000001H986.17736L975.6973600000002 -1.4400000000001C991.6973600000002 15.04 1008.17736 31.4399999999999 1024.33736 47.92V120L975.6973600000002 169.28Q999.6973600000002 194.0800000000001 1024.33736 218.56zM744.5773600000001 278H818.0973600000001L840.65736 255.12L781.29736 195.04L721.8573600000001 255.12zM575.53736 278H649.05736L672.01736 255.12L612.7373600000001 195.04L553.29736 255.12zM406.6573600000001 278H480.01736L502.57736 255.12L443.21736 195.04L384.01736 255.12zM290.8173600000001 278H311.2173600000001L333.7773600000001 255.12L304.73736 225.68zM326.8173600000001 142L315.2973600000001 185.44L358.9773600000001 229.68L418.3373600000001 169.6L358.9773600000001 109.6zM443.45736 24L384.01736 84.0799999999999L443.45736 144L502.81736 83.92zM468.57736 169.52L528.01736 229.68L587.3773600000001 169.6L528.01736 109.52zM612.57736 24L553.13736 84.0799999999999L612.41736 144L672.01736 84.0799999999999zM637.69736 169.52L697.1373600000001 229.6L756.4973600000001 169.52L697.1373600000001 109.4399999999999zM781.6973600000001 24L722.2573600000001 84.0799999999999L781.29736 144L840.65736 83.92zM806.81736 169.52L866.0973600000001 229.6L925.53736 169.52L866.0973600000001 109.4399999999999zM1009.61736 84L950.17736 24L890.89736 84.0799999999999L950.17736 144zM950.17736 195.04L890.89736 255.12L913.4573600000002 278H986.97736L1009.53736 255.12zM54.97736 724.4A86.56 86.56 0 0 0 40.73736 720H39.29736V737.04A85.2 85.2 0 0 1 55.29736 742V744.8A14.88 14.88 0 0 1 52.17736 755.76A17.36 17.36 0 0 1 39.61736 759.28V780H41.05736A50.88 50.88 0 0 0 64.01736 776A25.04 25.04 0 0 0 75.13736 764.8A60.4 60.4 0 0 0 78.25736 740.8V709.36A162.8000000000001 162.8000000000001 0 0 1 79.13736 688.88A117.76 117.76 0 0 1 83.13736 675.6H60.09736C60.09736 677.36 58.97736 679.92 58.01736 683.6A10.08 10.08 0 0 0 57.21736 687.04A41.92 41.92 0 0 0 44.17736 676.96A38.88 38.88 0 0 0 39.29736 674.96V692.4A20.96 20.96 0 0 1 48.73736 696.72A16 16 0 0 1 54.09736 705.6A49.84 49.84 0 0 1 54.97736 719.2V724.4zM38.97736 719.76A32 32 0 0 1 27.85736 715.76A11.68 11.68 0 0 1 24.01736 705.92A13.84 13.84 0 0 1 27.37736 696A10.8 10.8 0 0 1 36.49736 692A9.36 9.36 0 0 1 39.29736 692V674.16A39.2 39.2 0 0 0 29.29736 672.72A27.76 27.76 0 0 0 8.01736 680.72A32 32 0 0 0 0.01736 702.96A32 32 0 0 0 3.45736 718.16A27.28 27.28 0 0 0 13.45736 728.88A114.56 114.56 0 0 0 32.49736 735.2C34.81736 735.76 37.05736 736.0799999999999 39.37736 736.64zM38.97736 780V759.28A15.12 15.12 0 0 1 29.29736 756.64A19.36 19.36 0 0 1 24.01736 746.24L2.57736 750.88A37.36 37.36 0 0 0 14.81736 773.04A38.96 38.96 0 0 0 39.29736 780M106.57736 777.44H128.01736V763.6A35.04 35.04 0 0 0 156.01736 779.6A27.28 27.28 0 0 0 170.81736 775.6A32.96 32.96 0 0 0 181.37736 763.2A37.28 37.28 0 0 0 194.01736 776A27.84 27.84 0 0 0 208.01736 780A27.76 27.76 0 0 0 235.05736 761.84A60.88 60.88 0 0 0 237.61736 740.88V675.44H214.17736V733.6800000000001A48 48 0 0 1 211.53736 753.6A10.64 10.64 0 0 1 201.29736 759.36A14.32 14.32 0 0 1 192.17736 755.92A19.04 19.04 0 0 1 185.93736 745.84A78.48 78.48 0 0 1 184.01736 724.4V675.36H160.01736V731.36A86 86 0 0 1 158.57736 750.72A13.68 13.68 0 0 1 154.89736 757.28A12.64 12.64 0 0 1 147.77736 759.36A14.96 14.96 0 0 1 138.01736 755.92A19.76 19.76 0 0 1 131.77736 746.16A74.24 74.24 0 0 1 129.53736 725.12V675.52H106.57736zM310.09736 724.4A108 108 0 0 0 295.53736 720.3199999999999S294.73736 720.3199999999999 294.09736 719.84V737.04A97.2 97.2 0 0 1 310.09736 742V744.8A16 16 0 0 1 306.73736 755.76A16.96 16.96 0 0 1 294.17736 759.28V780H295.61736A51.04 51.04 0 0 0 319.61736 775.68A28.56 28.56 0 0 0 330.41736 764.72A66.8 66.8 0 0 0 333.29736 740.72L332.73736 709.28A120 120 0 0 1 334.17736 688.8A56.96 56.96 0 0 1 338.41736 675.52H314.97736C314.09736 677.28 313.85736 679.84 312.65736 683.52C312.65736 684.96 312.09736 686.16 312.09736 686.96A38.8 38.8 0 0 0 298.97736 676.88A26.96 26.96 0 0 0 294.17736 674.88V692.4A24.88 24.88 0 0 1 303.77736 696.72A22.16 22.16 0 0 1 309.29736 705.6A112.48 112.48 0 0 1 310.09736 719.2zM294.09736 719.76A28.88 28.88 0 0 1 282.97736 715.76A11.44 11.44 0 0 1 278.41736 706A14.8 14.8 0 0 1 281.85736 696A12.32 12.32 0 0 1 291.61736 692A9.12 9.12 0 0 1 294.25736 692V674.16A40 40 0 0 0 284.49736 672.72A29.36 29.36 0 0 0 262.57736 680.72A33.2 33.2 0 0 0 254.57736 702.96A36.32 36.32 0 0 0 257.93736 718.16A30.32 30.32 0 0 0 267.93736 728.88A102.16 102.16 0 0 0 286.97736 735.2C289.53736 735.76 291.85736 736.0799999999999 293.85736 736.64V720zM294.09736 780V759.28A14.72 14.72 0 0 1 284.33736 756.64A21.28 21.28 0 0 1 278.41736 746.24L257.13736 750.88A38.64 38.64 0 0 0 269.61736 773.04A39.52 39.52 0 0 0 294.09736 780M493.21736 695.28A19.76 19.76 0 0 1 509.21736 703.28A37.92 37.92 0 0 1 515.21736 727.28A35.76 35.76 0 0 1 509.21736 750.3199999999999A20.24 20.24 0 0 1 493.21736 758.3199999999999V780A41.28 41.28 0 0 0 526.25736 764.72A55.52 55.52 0 0 0 539.05736 726.72A57.04 57.04 0 0 0 526.17736 688A42 42 0 0 0 493.21736 673.12zM471.53736 726.72A36.8 36.8 0 0 1 477.77736 702.72A18.48 18.48 0 0 1 493.13736 694.72V672.48A42.08 42.08 0 0 0 470.01736 678.8A42.72 42.72 0 0 0 452.73736 697.2A73.44 73.44 0 0 0 447.37736 728A61.68 61.68 0 0 0 452.73736 753.92A48.48 48.48 0 0 0 469.29736 773.52A44.72 44.72 0 0 0 493.29736 780.16V758.24A19.68 19.68 0 0 1 477.93736 750.24A35.36 35.36 0 0 1 471.61736 727.2M636.17736 675.36H612.17736V727.28A120 120 0 0 1 611.05736 749.2A19.12 19.12 0 0 1 605.93736 756.72A11.68 11.68 0 0 1 597.93736 759.36A16 16 0 0 1 587.1373600000001 755.6A22.32 22.32 0 0 1 580.2573600000001 745.52A106.16 106.16 0 0 1 578.2573600000001 721.52V675.12H555.21736V777.44H576.81736V762.48A34.4 34.4 0 0 0 606.09736 780A31.12 31.12 0 0 0 620.33736 776.8A23.36 23.36 0 0 0 630.09736 768.8A28 28 0 0 0 634.97736 757.52A100.72 100.72 0 0 0 636.09736 739.12zM651.85736 695.28H669.2173600000001V675.36H651.8573600000001zM402.33736 638.72C402.89736 640.48 408.01736 651.44 404.57736 654.72C399.69736 658.48 393.77736 657.9200000000001 378.41736 656.8000000000001V672C392.41736 675.76 418.41736 684.4 427.69736 673.2S409.77736 609.2 397.45736 609.2C387.53736 609.2 398.89736 629.6 402.33736 639.36M378.33736 628.72L387.77736 633.9200000000001C400.57736 641.12 400.57736 652.3199999999999 382.41736 649.2L378.41736 648.4zM378.33736 656.96C372.33736 656.4 361.53736 653.2 360.41736 659.28C358.73736 667.28 370.73736 670.24 378.09736 672.24H378.65736zM378.33736 648.4C332.25736 639.76 296.41736 626.48 251.93736 627.12C199.21736 627.6800000000001 153.13736 650.16 97.37736 666.56C86.33736 669.6800000000001 77.21736 665.12 90.81736 655.92C145.21736 618.72 186.25736 599.9200000000001 248.89736 598.8A256 256 0 0 1 378.49736 628.72zM362.4973600000001 678.3199999999999V696L395.7773600000001 740.4C401.2173600000001 747.36 405.5373600000001 752.56 407.7773600000001 755.76A94.08 94.08 0 0 0 397.4573600000001 755.76L365.9373600000001 755.2V777.44H439.3773600000001V758.4L405.5373600000001 713.36L393.2173600000001 698.4H441.9373600000001V675.04H441.3773600000001A12.64 12.64 0 0 1 438.8173600000001 681.92C426.5773600000001 695.2 390.8173600000001 684.8 372.2573600000001 680.48L362.4973600000001 677.92M745.37736 678.72A44.08 44.08 0 0 0 723.61736 673.44C699.61736 673.44 683.61736 693.44 683.61736 725.52C683.61736 756.3199999999999 700.4173599999999 779.52 726.8173599999999 779.52A37.92 37.92 0 0 0 745.8573599999999 774.64L742.4173599999999 760.96A31.12 31.12 0 0 1 726.4173599999999 765.2C708.25736 765.2 698.8173599999999 747.12 698.8173599999999 726.24C698.8173599999999 702.24 710.1773599999999 688.0799999999999 726.1773599999999 688.0799999999999A34.48 34.48 0 0 1 742.73736 692.3199999999999zM793.05736 673.2C771.8573600000001 673.2 755.2173600000001 692.24 755.2173600000001 725.6800000000001C755.2173600000001 760.88 772.89736 779.44 794.3373600000001 779.44S832.01736 760 832.01736 726.96C832.01736 688.56 811.6973600000001 673.2 793.05736 673.2zM793.6973600000001 686.72C807.93736 686.72 816.5773600000001 705.44 816.5773600000001 726.72C816.5773600000001 743.6 810.65736 766.16 793.6973600000001 766.16S770.65736 744.64 770.65736 726.16C770.65736 705.52 779.1373600000001 686.72 793.53736 686.72zM850.5773600000001 750.24C850.5773600000001 761.2 850.5773600000001 768.96 849.8573600000001 777.44H863.1373600000001L863.93736 762.0799999999999A27.52 27.52 0 0 0 889.2173600000001 779.52A24 24 0 0 0 912.01736 760.56A38 38 0 0 0 921.37736 773.44A24.4 24.4 0 0 0 938.3373600000002 779.6C950.01736 779.6 964.73736 770.3199999999999 964.73736 737.84V675.36H950.41736V734.8C950.41736 752.72 945.53736 764.72 933.4573600000002 764.72A19.52 19.52 0 0 1 916.5773600000002 748.72A32 32 0 0 1 915.4573600000002 739.44V675.44H900.5773600000001V738.24C900.5773600000001 753.04 895.6973600000001 764.8 884.5773600000001 764.8A20.4 20.4 0 0 1 866.9773600000001 746.88A37.28 37.28 0 0 1 865.8573600000001 737.76V675.28H850.9773600000001V750.24z" />
    <glyph glyph-name="anghami"
      unicode="&#xF103;"
      horiz-adv-x="1024" d="M512 890.08A506.08 506.08 0 1 1 1018.08 384A506.08 506.08 0 0 1 512 890.08zM512 -62.5600000000001A446.5600000000001 446.5600000000001 0 1 0 958.56 384A447.0400000000001 447.0400000000001 0 0 0 512 -62.5600000000001zM497.12 642A34.8 34.8 0 0 1 462.4 607.28V160.72A34.72 34.72 0 1 1 531.84 160.72V607.28A34.8 34.8 0 0 1 497.12 642zM606.24 542.8A34.8 34.8 0 0 1 571.52 508.08V260.0800000000001A34.72 34.72 0 1 1 640.96 260.0800000000001V508.08A34.8 34.8 0 0 1 606.24 542.8zM715.44 433.6A34.8 34.8 0 0 1 680.72 398.88V369.12A34.72 34.72 0 1 1 750.16 369.12V398.88A34.8 34.8 0 0 1 715.44 433.6zM410.64 643.28A86.8 86.8 0 0 1 353.2 642C303.6 632.0799999999999 204.32 473.28 353.2 394V374.16A152 152 0 0 1 282.32 221.52A112 112 0 0 1 324.4000000000001 148.64C359.68 120.64 412.8 89.52 412.8 155.84V640A3.76 3.76 0 0 1 410.64 643.28z" />
    <glyph glyph-name="applemusic"
      unicode="&#xF104;"
      horiz-adv-x="1024" d="M876.50666667 829.12C876.50666667 857.36 859.54666667 874.32 836.98666667 868.64C836.98666667 868.64 424.50666667 789.52 373.62666667 778.24C339.70666667 772.56 328.42666667 750 328.42666667 721.76V184.96C328.42666667 128.48 283.22666667 145.44 221.06666667 128.48C119.38666667 100.24 113.70666667 55.04 108.02666667 43.76C96.74666667 -12.72 113.70666667 -74.88 187.14666667 -97.52A214 214 0 0 1 271.86666667 -97.52C322.66666667 -86.24 350.98666667 -64 373.62666667 -12.8000000000001C384.90666667 9.84 384.90666667 43.68 384.90666667 71.92V524C384.90666667 552.24 390.58666667 557.9200000000001 418.82666667 563.52C553.06666667 581.8399999999999 687.22666667 613.28 814.34666667 636.64V269.76C814.34666667 207.6 695.70666667 247.12 616.58666667 173.76C588.34666667 145.52 582.66666667 94.64 593.94666667 72.0799999999999C605.22666667 32.5599999999999 633.46666667 4.24 673.06666667 -1.36C701.30666667 -7.04 786.10666667 -18.32 836.90666667 43.84C870.82666667 83.36 870.82666667 111.68 870.82666667 151.1999999999999z" />
    <glyph glyph-name="awa"
      unicode="&#xF105;"
      horiz-adv-x="1024" d="M718.93333333 568.14933333L626.60266667 304.21333333L544.7679999999999 568.14933333H489.1306666699999L407.2106666699999 304.21333333L314.88 568.14933333H248.23466667L376.23466667 201.30133333H437.67466667L514.816 452.69333333H518.99733333L596.1386666699999 201.30133333H657.57866667L785.57866667 568.14933333H718.9333333299999zM108.288 563.2L-17.06666667 199.85066667H40.10666667L86.86933333 310.7840000000001H187.73333333L234.15466667 199.85066667H291.75466667L165.888 563.2zM100.864 364.45866667L137.13066667 454.82666667L173.39733333 364.45866667zM915.712 563.2H858.112L732.58666667 199.85066667H789.76L836.52266667 310.7840000000001H937.2160000000002L983.6373333300002 199.85066667H1041.06666667zM850.6880000000001 364.45866667L886.95466667 454.82666667L923.2213333300002 364.45866667z" />
    <glyph glyph-name="bandcamp"
      unicode="&#xF106;"
      horiz-adv-x="1024" d="M0 96L317.28 672H1024L706.64 96z" />
    <glyph glyph-name="beatport"
      unicode="&#xF107;"
      horiz-adv-x="1024" d="M929.19466666 329.04533333C929.19466666 537.5999999999999 751.44533333 708.26666667 533.33333333 708.26666667S137.472 537.5999999999999 137.472 329.04533333A369.4933333300001 369.4933333300001 0 0 1 244.90666666 69.4613333299999A25.6 25.6 0 0 1 279.8080000000001 68.43733333L322.4746666600001 107.09333333A22.528 22.528 0 0 1 323.5840000000001 140.0319999999999A269.2266666700001 269.2266666700001 0 0 0 245.4186666600001 328.5333333299999C245.4186666600001 480.5119999999999 374.6133333300001 604.3306666599999 533.3333333300001 604.33066667S821.248 480.5119999999999 821.248 328.53333333A268.288 268.288 0 0 0 743.25333333 139.9466666700001A22.528 22.528 0 0 1 744.36266666 107.0080000000002L787.02933333 68.3520000000001A25.6 25.6 0 0 1 821.93066666 69.3760000000001A370.3466666700001 370.3466666700001 0 0 1 929.36533333 328.9600000000001M1078.528 331.17866667A492.1173333300001 492.1173333300001 0 0 1 1054.54933333 482.6453333299999A25.6 25.6 0 0 1 1024.0000000000002 497.7493333299999L967.8506666600002 480.6826666699999A23.21066667 23.21066667 0 0 1 951.4666666600002 451.7546666699999A390.05866667 390.05866667 0 0 0 911.1040000000002 124.3306666699999A22.18666667 22.18666667 0 0 1 919.6373333300002 92.5013333299999L969.8133333300004 63.7439999999999A25.6 25.6 0 0 1 1003.9466666600003 71.59466667A485.8879999999999 485.8879999999999 0 0 1 1078.6133333300004 331.17866667M155.47733333 124.33066667A390.05866667 390.05866667 0 0 0 115.2 451.75466667A23.21066667 23.21066667 0 0 1 98.816 481.024L42.66666666 498.09066667A24.74666667 24.74666667 0 0 1 12.11733333 482.98666667A490.15466667 490.15466667 0 0 1 62.80533333 71.424A25.6 25.6 0 0 1 96.93866666 63.5733333299999L147.11466666 92.3306666699999A23.72266667 23.72266667 0 0 1 155.648 124.6719999999999" />
    <glyph glyph-name="bleep"
      unicode="&#xF108;"
      horiz-adv-x="1024" d="M873.15625 198.0234375A289.1953125 289.1953125 0 0 0 852.0625 86.2265625A211.8515625 211.8515625 0 0 0 782.9453125 -1.734375A253.546875 253.546875 0 0 0 669.6015625 -51.9375A754.1015625000001 754.1015625000001 0 0 0 545.21875 -61.9921875H190.84375V830.0625H545.21875A580.2890625 580.2890625 0 0 0 652.5859375 819.9375A276.8203125 276.8203125 0 0 0 751.0234375 780.984375A226.0546875 226.0546875 0 0 0 827.03125 696.609375A232.03125 232.03125 0 0 0 854.03125 587.2734375A249.0468750000001 249.0468750000001 0 0 0 847.7734375 532.0078125A212.5546875 212.5546875 0 0 0 827.6640625 478.640625A197.859375 197.859375 0 0 0 793.140625 432.1640625A163.265625 163.265625 0 0 0 744.765625 398.90625A205.4531250000001 205.4531250000001 0 0 0 841.375 315.515625A228.4453125 228.4453125 0 0 0 873.15625 198.0234375zM689.7109375 577.7109375A115.6640625 115.6640625 0 0 1 678.390625 631.078125A95.34375 95.34375 0 0 1 648.2265625 666.234375A122.90625 122.90625 0 0 1 604.28125 685.078125A239.9062500000001 239.9062500000001 0 0 1 551.4765625 690.703125H351.71875V466.8984375H555.2734375A231.2578125 231.2578125 0 0 1 607.4453125 472.5234375A123.1171875 123.1171875 0 0 1 650.1953125 490.734375A88.171875 88.171875 0 0 1 679.0234375 524.625A117.4921875 117.4921875 0 0 1 689.7109375 577.5zM708.5546875 202.03125Q708.5546875 273.6796875 664.609375 302.578125T556.46875 331.265625H351.71875V83.765625H551.4765625A284.8359375 284.8359375 0 0 1 607.7265625 89.390625A154.6875 154.6875 0 0 1 658.5625 108.8671875A108.3515625 108.3515625 0 0 1 694.703125 144.9375A106.734375 106.734375 0 0 1 708.5546875 201.8203125z" />
    <glyph glyph-name="boomkat"
      unicode="&#xF109;"
      horiz-adv-x="1024" d="M691.62666667 361.12V307.92H641.78666667V268.0800000000001H691.62666667V224.88H731.46666667V361.12H691.62666667zM528.55466667 97.68L871.51466667 207.4L883.6506666700001 169.456L540.69066667 59.736zM834.66666667 894.24L744.74666667 800.48L372.74666667 715.12L291.70666667 816L173.46666667 696.56V480.56H0.74666667V427.44H173.46666667V17.28L419.54666667 -126.72L980.58666667 59.28V744zM226.66666667 674.64L287.7866666700001 736.4L352.58666667 656L771.30666667 752L834.18666667 817.6L927.22666667 722.24V684L437.0666666700001 562.0799999999999L435.8666666700001 628.48L382.7466666700001 627.52L395.0666666700001 -49.36L226.66666667 47.52zM448.50666667 -60.72L438.10666667 507.28L927.38666667 629.6800000000001V97.92zM604.02666667 439.6L576.5866666700001 468.56L478.66666667 375.52L506.02666667 346.64L537.86666667 376.88L578.18666667 338.4L605.78666667 367.2000000000001L566.82666667 404.4L604.0266666699999 439.6zM897.30666667 449.28L858.50666667 486.48L895.54666667 521.8399999999999L868.18666667 550.64L770.10666667 457.68L797.62666667 428.8L829.54666667 458.96L869.78666667 420.48L897.30666667 449.28zM346.1866666700001 583.6H264.90666667V670.64H304.74666667V623.52H346.18666667V583.5999999999999zM773.06666667 754.72H868.18666667V714.88H773.06666667z" />
    <glyph glyph-name="bugs"
      unicode="&#xF10A;"
      horiz-adv-x="1024" d="M699.2421875 359.1510416700001C765.96875 380.2447916700001 875.0234375 682.09635417 598.90625 804.29947917A89.015625 89.015625 0 0 1 562.90625 811.89322917H182.234375L240.03125 710.71354167A89.71875 89.71875 0 0 1 317.7265625 665.50260417L504.40625 665.01041667A100.7578125 100.7578125 0 0 0 594.4765625 611.08072917C624.7109375 551.45572917 608.5390625 468.06510417 587.4453125 429.25260417H462.78125L435.2890625 544.56510417A76.640625 76.640625 0 0 1 287 507.36979167L411.9453125 -86.4895833300001H635.75A189.84375 189.84375 0 0 1 768.21875 -33.5442708300001C939.78125 133.2369791699999 766.4609375 338.47916667 699.2421875 359.15104167zM639.1953125 63.8385416700002A359.6484375000001 359.6484375000001 0 0 0 546.3125 63.8385416700002L505.6015625 291.7916666700002H575.9140625A101.671875 101.671875 0 0 0 660.2890625 247.8463541700002C714.359375 168.2526041700002 688.4140625 72.4166666700002 639.1953125 63.9088541700002z" />
    <glyph glyph-name="emusic"
      unicode="&#xF10B;"
      horiz-adv-x="1024" d="M233 21.6H790.9250000000001V-92.25H233zM812 484.5V675.225S780.95 843.15 630.05 860.25H388.1S228.725 843.15 211.625 663.825V376.5S211.625 219.9 388.1 191.475H627.2S817.9250000000001 242.55 812 399H658.5500000000001S658.5500000000001 333.525 595.9250000000001 336.375H416.6S356.6 342.15 356.6 396.375V479.7S815.15 487.35 812 484.5zM483.275 736.5H541.625A121.725 121.725 0 0 0 663.275 614.4749999999999H361.55A121.725 121.725 0 0 0 483.275 736.5z" />
    <glyph glyph-name="flo"
      unicode="&#xF10C;"
      horiz-adv-x="1024" d="M833.95 680.7C789.5500000000001 632.775 644.95 613.95 532 662.925C369.175 733.5 230.05 645.15 230.05 645.15V804.975C304.075 870.225 410.6500000000001 877.8 532 822.75C640.3000000000001 774 833.95 840.525 833.95 840.525zM833.95 512.4749999999999H407.6500000000001A177.6 177.6 0 0 1 230.05 334.875V-91.5H413.2V276A53.325 53.325 0 0 0 466.525 329.325H834.025z" />
    <glyph glyph-name="gaana"
      unicode="&#xF10D;"
      horiz-adv-x="1024" d="M573.92 888A204.96 204.96 0 0 1 424.56 827.76C371.12 776 340.48 698.88 340.48 616V370.0800000000001C340.48 291.68 394.9600000000001 227.92 464.48 224.88L586.32 219.6A798.64 798.64 0 0 0 565.84 108.16A95.04 95.04 0 0 0 477.04 37.1999999999999L209.04 28.48L213.84 -119.76L554.88 -108.64C611.6800000000001 -106.8000000000001 703.6800000000001 -61.36 728.8000000000001 213.52L814.88 879.52zM644.88 721.28L604.2399999999999 405.28A41.44 41.44 0 0 0 561.8399999999999 369.12L505.8399999999999 370.88A50.4 50.4 0 0 0 457.8399999999999 429.52L488.8 616C496.8 658.56 507.6 696.88 527.6800000000001 721.36A51.6 51.6 0 0 0 568.88 739.6800000000001L631.04 737.6A14.48 14.48 0 0 0 644.88 720.96z" />
    <glyph glyph-name="genie"
      unicode="&#xF10E;"
      horiz-adv-x="1024" d="M733.33946082 713.85991917S695.33815801 827.61585698 540.79126238 841.81210261C384.6325661300001 856.13233261 239.6324898800001 688.0711073 204.3588498800001 518.02612729C175.1604592500001 346.43133885 239.8804586300001 212.89984541 372.6680448800001 167.64543886S630.2462045700001 246.3137141700001 630.2462045700001 246.3137141700001S629.6262808200001 35.22980761 453.0721051900002 18.11992261C353.8843661300002 8.2011491700001 308.2580064400002 116.2537916700001 308.2580064400002 116.2537916700001L139.70084269 120.90321698S175.47042113 -117.3333333300001 448.4226808200001 -117.3333333300001C742.76229582 -117.3333333300001 793.78198894 186.4291176099999 793.78198894 186.4291176099999L925.26773551 826.0040563599999zM677.54635707 457.70758354C648.22398207 347.60919323 559.07900175 275.88405886 478.55095613 297.20942292S356.6120298800001 425.40957604 385.9963970700001 535.56995855S504.52574551 717.5794588599999 585.05379113 696.06811823S707.05470957 567.86796604 677.60834925 457.70758354z" />
    <glyph glyph-name="groove"
      unicode="&#xF10F;"
      horiz-adv-x="1024" d="M512 855.04A470.48 470.48 0 1 1 874.24 685.44L850.24 714.24L693.12 601.6L740.48 535.04L833.9200000000001 602.24A388.08 388.08 0 1 0 716.8000000000001 714.88L784.64 768.64A468.8800000000001 468.8800000000001 0 0 1 512 855.04zM512 568A184 184 0 1 1 696 384A184.56 184.56 0 0 1 512 568zM512 445.12A61.44 61.44 0 1 0 450.48 384A61.44 61.44 0 0 0 512 445.44z" />
    <glyph glyph-name="hardwax"
      unicode="&#xF110;"
      horiz-adv-x="1024" d="M217.25 807.975C222.95 834 268.775 862.35 305.975 782.25V547.575S363.2 536.0999999999999 377.5250000000001 496.05C377.5250000000001 453.15 351.8 436.05 317.5250000000001 436.05C317.5250000000001 436.05 217.4 436.05 217.4 550.5zM772.4 679.05V681.825A30 30 0 0 1 761.75 704.7C734.6750000000001 727.65 674 796.5 806.75 859.575C889.775 867.075 881.15 779.475 881.15 779.475L889.7 41.025S879.875 -102.9 789.575 -82.0500000000001C617.9 -36 755.225 46.5 781.025 84L775.325 209.925C729.5 173.475 685.775 211.5 662 240.675A72.675 72.675 0 0 1 607.1750000000001 267.8999999999999L404.675 272.2499999999999A92.85 92.85 0 0 1 335.975 245.325A53.325 53.325 0 0 1 317.375 204V9A102 102 0 0 0 266.525 -81C198.5 -118.5 134.225 -49.2 134.225 -30.375C133.1 26.85 185.75 -13.2 202.925 41.175C202.925 41.175 185.75 189.975 202.925 258.675C220.1 305.625 277.325 370.275 377.5250000000001 370.275H605.45A246.6750000000001 246.6750000000001 0 0 0 715.775 344.175L752.375 325.95A21.9 21.9 0 0 1 779.975 332.475C792.575 350.25 816.0500000000001 384.975 778.25 435.525C746.6750000000001 474.675 723.875 389.7 658.25 435.525C618.2 487.05 724.1 555.525 724.1 555.525S722.3000000000001 581.175 721.5500000000001 626.475A37.5 37.5 0 0 0 757.1 665.25H758.525A14.1 14.1 0 0 1 772.4 679.05z" />
    <glyph glyph-name="jiosaavn"
      unicode="&#xF111;"
      horiz-adv-x="1024" d="M627.38333333 12.71666667H227.1833333300001A97.5 97.5 0 0 0 129.6833333300001 110.21666667V668.74166667A97.5 97.5 0 0 0 227.1833333300001 766.24166667H773.9333333300001A97.5 97.5 0 0 0 871.4333333300001 668.74166667V271.69166667A207.975 207.975 0 0 0 943.20833333 241.69166667V668.74166667A169.425 169.425 0 0 1 773.85833333 838.16666667H227.1833333300001A169.425 169.425 0 0 1 57.75833333 668.74166667V110.36666667A169.425 169.425 0 0 1 227.18333333 -59.0583333300001H662.18333333A208.4250000000001 208.4250000000001 0 0 0 627.38333333 12.71666667zM823.50833333 257.6666666700001A185.4 185.4 0 1 1 1008.90833333 72.2666666700001A185.4 185.4 0 0 1 823.50833333 257.6666666700001zM906.00833333 23.1416666700001A7.5 7.5 0 0 0 905.63333333 20.9666666700001A30 30 0 1 0 892.4333333300001 50.5166666700001V121.8416666700001L891.3083333300001 155.7416666700001L787.73333333 141.7166666700001V6.3416666700001A6 6 0 0 0 787.35833333 4.4666666700001A30 30 0 1 0 774.15833333 33.7916666700002V151.69166667A6.825 6.825 0 0 0 780.00833333 158.51666667L898.0583333300001 175.1666666699999A6.9 6.9 0 0 0 905.55833333 168.4166666699999zM397.3583333300001 75.5666666699999S356.1833333300001 173.6666666699999 171.53333333 215.06666667V156.86666667A84.3 84.3 0 0 1 255.83333333 72.5666666699999H397.3583333300001zM718.80833333 718.54166667H544.35833333L558.8333333300001 717.04166667C554.33333333 150.34166667 458.33333333 102.49166667 458.33333333 102.49166667C448.5083333300001 367.09166667 318.3833333300001 631.5416666699999 271.58333333 718.61666667H256.28333333A84.75 84.75 0 0 1 171.53333333 633.86666667V504.49166667C235.0583333300001 457.31666667 405.3833333300001 310.61666667 433.20833333 75.49166667V72.49166667H494.55833333V78.71666667C495.08333333 80.21666667 610.50833333 401.74166667 829.50833333 469.7666666699999V607.84166667A110.7 110.7 0 0 1 718.80833333 718.54166667zM554.33333333 78.5666666699999V72.5666666699999H618.9833333299999A4.35 4.35 0 0 0 618.9833333299999 73.3166666699999C617.4833333299999 97.99166667 639.90833333 168.26666667 639.90833333 168.26666667L643.1333333299999 170.59166667L626.4833333299999 162.26666667S566.33333333 126.4166666699999 554.33333333 78.5666666699999z" />
    <glyph glyph-name="joox"
      unicode="&#xF112;"
      horiz-adv-x="1024" d="M512 385.84M457.44 385.84A54.56 54.56 0 1 1 566.5600000000001 385.84A54.56 54.56 0 1 1 457.44 385.84zM1010.88 385.84A498.8 498.8 0 1 1 732.16 -62.16L851.6 -117.12L840 10A497.6 497.6 0 0 1 1010.88 385.84zM921.2 522.3199999999999S839.36 705.44 683.52 776C683.52 776 878.4 744.48 921.2 522.3199999999999zM341.6 57.68C194.96 94.96 154.64 252.7200000000001 154.64 252.7200000000001C220.24 140.72 341.6 57.68 341.6 57.68zM224 234.16A790.8800000000001 790.8800000000001 0 0 1 336.48 120C236.16 147.84 224 234.16 224 234.16zM107.68 246.8C171.68 88.0799999999999 350.88 -1.2 350.88 -1.2C130.72 50.8 107.68 246.8 107.68 246.8zM512 136.4A249.4400000000001 249.4400000000001 0 1 0 761.44 385.84A249.76 249.76 0 0 0 512 136.4zM691.28 658.72S777.04 643.1200000000001 800.4 541.76A790.8800000000001 790.8800000000001 0 0 1 691.28 658.72zM675.6800000000001 728.8800000000001S831.6 682.08 862.72 534C862.8000000000001 534 784.8000000000001 658.72 675.6800000000001 728.8800000000001z" />
    <glyph glyph-name="juno"
      unicode="&#xF113;"
      horiz-adv-x="1024" d="M167.46875 777.75V174.890625C167.46875 129.890625 140.46875 125.671875 104.1875 125.671875A99 99 0 0 0 69.03125 129.9609375V-4.8984375H73.25C91.25 -4.8984375 109.25 -9.3984375 122.46875 -9.3984375C284.1875 -9.3984375 324.828125 44.53125 324.828125 165.9609375V777.75zM910.25 790.8984375V435.6796875C878.8203125 525.609375 793.25 579.609375 694.4609375 579.609375C519.03125 579.609375 438.171875 444.6796875 438.171875 278.53125C438.171875 116.8125 514.6015625 -22.7578125 689.9609375 -22.7578125C793.390625 -22.7578125 865.3203125 22.2421875 910.3203125 112.1015625V-13.96875H954.96875V790.8984375zM698.9609375 13.03125C550.6015625 13.03125 483.1015625 143.4609375 483.1015625 278.3203125C483.1015625 417.6796875 546.3828125 543.609375 698.9609375 543.609375C847.3203125 543.609375 914.8203125 413.1796875 914.8203125 278.3203125C910.25 143.4609375 842.8203125 13.03125 698.9609375 13.03125z" />
    <glyph glyph-name="kkbox"
      unicode="&#xF114;"
      horiz-adv-x="1024" d="M915.90625 788.86816406H767.92041015C704.50732421 788.86816406 674.44873046 772.91601562 637.93017578 743.84619141L343.2768554700001 455.91650391V771.0703125A18.19335938 18.19335938 0 0 1 325.1494140600001 789.19775391H137.21728515A18.19335938 18.19335938 0 0 1 119.08984375 771.0703125V-3.0703125A18.12744141 18.12744141 0 0 1 137.21728515 -21.1318359400001H325.14941406A18.12744141 18.12744141 0 0 1 343.2768554700001 -3.0703125V318.08203125L646.9609375 17.56201172C677.94238281 -6.8935546900001 714.85644531 -19.48388672 763.70166015 -19.48388672H907.7324218700002C954.53417968 -19.48388672 937.2636718700002 7.4765625 937.2636718700002 7.4765625L560.93798828 384.32958984L938.77978515 762.36914063S962.70800781 788.86816407 915.90625 788.86816406z" />
    <glyph glyph-name="melon"
      unicode="&#xF115;"
      horiz-adv-x="1024" d="M443.44 -126.4A378.8 378.8 0 1 0 822.24 252.4A379.2000000000001 379.2000000000001 0 0 0 443.44 -126.4zM443.44 424.64A172.24 172.24 0 1 1 616 252.4A172.48 172.48 0 0 1 443.44 424.72zM817.84 752.88M676.32 752.88A141.5200000000001 141.5200000000001 0 1 1 959.36 752.88A141.5200000000001 141.5200000000001 0 1 1 676.32 752.88z" />
    <glyph glyph-name="mixcloud"
      unicode="&#xF116;"
      horiz-adv-x="1024" d="M689.7493333300001 445.78133333A286.54933333 286.54933333 0 0 1 133.3760000000001 509.86666667A192.17066667 192.17066667 0 0 1 161.7066666700001 127.4880000000001H654.93333333A160.93866667 160.93866667 0 0 1 689.83466667 445.7813333300001zM654.848 199.68H161.70666667A120.23466667 120.23466667 0 1 0 246.61333333 404.48C280.74666666 370.34666667 331.9466666600001 421.54666667 297.8133333300001 455.68A196.26666667 196.26666667 0 0 1 209.1520000000001 505.68533333A214.44266667 214.44266667 0 0 0 619.008 418.1333333300001A217.00266667 217.00266667 0 0 0 608.1706666700001 350.7200000000001C592.9813333400001 303.872 662.86933334 284.416 676.4373333300001 328.10666667A278.016 278.016 0 0 1 687.2746666700002 371.456A88.74666667 88.74666667 0 0 0 654.8480000000002 199.68zM1055.14666667 288.7680000000001A372.736 372.736 0 0 0 992 79.8720000000001A36.01066667 36.01066667 0 1 0 932.26666667 119.9786666700001A304.46933333 304.46933333 0 0 1 932.26666667 457.13066667C905.64266667 496.04266667 965.20533334 537.6000000000001 992 497.23733333A370.09066667 370.09066667 0 0 0 1055.14666667 288.8533333300001zM934.4 288.7680000000001A267.6053333300001 267.6053333300001 0 0 0 888.66133333 138.32533333A36.18133333 36.18133333 0 0 0 828.928 178.8586666699999A197.03466667 197.03466667 0 0 1 828.928 398.592C802.048 437.76 861.2693333300001 478.80533333 888.66133333 438.69866667A265.04533333 265.04533333 0 0 0 934.4 288.7679999999999z" />
    <glyph glyph-name="odnoklassniki"
      unicode="&#xF117;"
      horiz-adv-x="1024" d="M611.525 169.8A456.975 456.975 0 0 1 753.275 228.45A71.55 71.55 0 0 1 677 349.425A309.6750000000001 309.6750000000001 0 0 0 348.575 349.425A71.475 71.475 0 0 1 250.175 326.925A71.4 71.4 0 0 1 272.675 228.525A454.0500000000001 454.0500000000001 0 0 1 414.5 169.875L277.7750000000001 33.4499999999999A70.725 70.725 0 0 1 276.6500000000001 -66.45L277.85 -67.65A70.725 70.725 0 0 1 378.2 -67.65L513.2 66.375L647 -67.65A71.475 71.475 0 0 1 748.025 33.375L611.525 169.8zM512.9 369A243.9000000000001 243.9000000000001 0 1 1 268.925 612.75A244.2 244.2 0 0 1 512.9 369zM512.9 714A101.025 101.025 0 1 0 411.875 612.525A101.1 101.1 0 0 0 512.9 713.55z" />
    <glyph glyph-name="offerup"
      unicode="&#xF118;"
      horiz-adv-x="1024" d="M904.56 456L795.6 344C776.72 201.12 657.28 90.88 512.5600000000001 90.88C354.8 90.88 226.88 221.92 226.88 383.6S354.88 676.24 512.5600000000001 676.24C660.08 676.24 781.44 561.76 796.64 414.72L904.48 525.2L1007.36 419.76C989.2 683.76 774.64 891.76 512.48 891.76C238.56 892.32 16 664.72 16 384S238.16 -124.32 512 -124.32C775.04 -124.32 990.08 85.28 1007.04 350.32z" />
    <glyph glyph-name="other0"
      unicode="&#xF119;"
      horiz-adv-x="1024" d="M512 893.6A393.0400000000001 393.0400000000001 0 0 1 188.32 277.6A124.08 124.08 0 0 1 195.6 266.24L482.56 -112A39.28 39.28 0 0 1 512 -125.6A40.56 40.56 0 0 1 542.72 -110.5600000000001L828.32 266.16A88 88 0 0 1 834.88 276.4A393.0400000000001 393.0400000000001 0 0 1 512 893.6zM512 360A140.4 140.4 0 1 0 652.4 500.4A140.56 140.56 0 0 0 512 360z" />
    <glyph glyph-name="other1"
      unicode="&#xF11A;"
      horiz-adv-x="1024" d="M641.46666666 370.16L761.4666666600001 490.16A144 144 0 1 1 799.14666666 626.16L532.18666666 359.36L526.5066666600001 365.04L793.62666666 632A144 144 0 1 1 590.0266666599999 632A142.2400000000001 142.2400000000001 0 0 1 657.62666666 594.48L537.62666666 474.48S536.1866666599999 472.88 477.6266666599999 414.4L439.5466666599999 452L570.66666666 583.36A11.68 11.68 0 0 1 570.66666666 600A11.52 11.52 0 0 1 554.66666666 600L422.90666666 468.72L409.06666666 482.48L540.50666666 613.8399999999999A11.84 11.84 0 0 1 523.78666666 630.56L392.4266666600001 499.2L378.66666666 512.96L510.02666666 644.3199999999999A11.84 11.84 0 0 1 493.30666666 661.04L361.94666666 529.6800000000001L348.18666666 543.44L479.54666666 674.88A11.76 11.76 0 0 1 462.82666666 691.52L331.46666666 560L317.70666666 573.8399999999999L448.98666666 705.36A11.76 11.76 0 0 1 432.34666666 722L300.90666666 590.56L287.06666666 604.4L418.66666666 736A11.76 11.76 0 0 1 402.02666666 752.72L270.42666666 621.12L256.6666666600001 634.96L388.0266666600001 766.24A11.84 11.84 0 0 1 371.3066666600001 782.96L239.94666666 651.6L226.18666666 665.44L357.5466666600001 796.8A11.84 11.84 0 0 1 340.8266666600001 813.52L209.46666666 682.16L195.62666666 696L327.06666666 827.36A11.76 11.76 0 0 1 310.42666666 844L178.66666666 712.64L165.22666666 726.4L296.50666666 857.76A11.6 11.6 0 0 1 296.50666666 874.16A11.6 11.6 0 0 1 280.50666666 874.16L68.34666666 663.04A10.24 10.24 0 0 1 66.66666666 649.04L389.78666666 325.6A2556.8 2556.8 0 0 1 105.70666666 -40.4A21.04 21.04 0 0 1 134.50666666 -69.6800000000001C209.78666666 -23.12 338.74666666 67.68 493.30666666 222.0800000000001L823.2266666600001 -107.84A10.16 10.16 0 0 1 837.2266666600001 -105.76L909.22666666 -33.76A10.32 10.32 0 0 1 911.38666666 -19.76L581.54666666 310.0800000000001L641.54666666 370.1600000000001zM845.78666666 579.9200000000001A78.08 78.08 0 1 0 845.78666666 469.52A78.16 78.16 0 0 0 845.78666666 579.9200000000001zM636.58666666 789.12A78.08 78.08 0 1 0 636.58666666 678.72A78 78 0 0 0 636.58666666 789.12zM400.7466666600001 336.9600000000001L86.98666666 650.64A8 8 0 0 0 86.98666666 661.6A8 8 0 0 0 97.94666666 661.6L411.46666666 348L400.74666666 336.88zM444.4266666600001 245.36A18.56 18.56 0 1 0 444.4266666600001 271.52A18.56 18.56 0 0 0 444.4266666600001 245.36zM822.5066666600001 -62.96A8 8 0 0 0 822.5066666600001 -73.84A8 8 0 0 0 811.6266666600001 -73.84L504.1866666600001 233.52L515.2266666600001 244.32L822.5066666600001 -62.96zM822.5066666600001 -62.96" />
    <glyph glyph-name="other3"
      unicode="&#xF11B;"
      horiz-adv-x="1024" d="M533.70833333 838.24166667C270.83333333 838.24166667 57.75833333 654.1916666699999 57.75833333 427.91666667C57.75833333 310.24166667 115.05833333 203.89166667 207.75833333 129.26666667L532.80833333 -112.8333333300001V17.6666666699999C795.3083333300001 17.6666666699999 1008.75833333 201.71666667 1008.75833333 427.99166667S795.8333333300001 838.24166667 533.70833333 838.24166667zM770.5583333299999 354.71666667A62.625 62.625 0 1 0 833.3333333299998 417.34166667A63.45 63.45 0 0 0 770.5583333299999 354.71666667zM533.7083333299998 354.71666667A62.625 62.625 0 1 0 596.3333333299998 417.34166667A63.45 63.45 0 0 0 533.7083333299998 354.71666667zM297.6083333299999 354.71666667A62.625 62.625 0 1 0 360.2333333299999 417.34166667A62.475 62.475 0 0 0 297.6083333299999 354.71666667z" />
    <glyph glyph-name="other4"
      unicode="&#xF11C;"
      horiz-adv-x="1024" d="M881.525 775.5H142.475A68.025 68.025 0 0 1 73.175 706.5V61.5A69.45 69.45 0 0 1 142.475 -7.8000000000001H881.525A71.025 71.025 0 0 1 950.825 61.5V706.5A69.45 69.45 0 0 1 881.525 775.5zM299.5250000000001 657.675A74.4 74.4 0 0 0 373.4000000000001 583.8A72.975 72.975 0 0 0 299.5250000000001 509.925A73.875 73.875 0 0 0 299.5250000000001 657.75zM246.425 96.4499999999999A37.5 37.5 0 0 0 225.65 103.35C211.775 114.9 211.775 131.1 223.325 144.9L366.5 345.9A31.8 31.8 0 0 0 408.05 350.55L532.775 262.8L756.8000000000001 502.8C768.35 514.3499999999999 823.775 574.425 856.1 507.45V99C856.1 96.4499999999999 246.4250000000001 96.4499999999999 246.4250000000001 96.4499999999999z" />
    <glyph glyph-name="other6"
      unicode="&#xF11D;"
      horiz-adv-x="1024" d="M748.5600000000001 788.90666667A264.96 264.96 0 0 1 512 638.66666667A264.96 264.96 0 0 1 275.44 788.9066666699999C129.04 788.9066666699999 9.92 665.62666667 9.92 514.0266666699999C9.92 277.94666667 262.8 62.50666667 498.72 -60.2933333300002A28.88 28.88 0 0 1 525.28 -60.2933333300002C761.6 62.5066666699999 1014.08 277.9466666699998 1014.08 514.0266666699999C1014.08 665.5466666699999 894.96 788.9066666699999 748.5600000000001 788.9066666699999zM744.8000000000001 382.18666667L532.96 158.9066666700002A28.88 28.88 0 0 0 492.08 157.8666666700001L491.04 158.9066666700002L279.2 382.18666667A28.88 28.88 0 1 0 319.2 423.62666667L320.88 421.8666666700001L512 220.74666667L702.88 421.86666667A28.88 28.88 0 0 0 746.4 383.86666667z" />
    <glyph glyph-name="other7"
      unicode="&#xF11E;"
      horiz-adv-x="1024" d="M16 384A495.9999999999999 495.9999999999999 0 1 0 512 -112A495.9999999999999 495.9999999999999 0 0 0 16 384M404.4000000000001 608C372.4000000000001 625.6 346.64 610.4 346.64 574V194C346.64 157.84 372.48 142.4 404.4000000000001 160L752.4 352C784.4 369.6 784.4 398.16 752.4 416z" />
    <glyph glyph-name="other8"
      unicode="&#xF11F;"
      horiz-adv-x="1024" d="M585.2 174V53.1A136.575 136.575 0 0 1 721.475 -83.1750000000001H842.375A136.575 136.575 0 0 1 978.65 53.1V174A136.575 136.575 0 0 1 842.375 310.5H812.375A135 135 0 0 1 759.875 391.95C745.475 405.825 713.525 419.1 678.4250000000001 419.1H565.9250000000001A133.425 133.425 0 0 1 624.5 468.6L693.2 533.025A135.6750000000001 135.6750000000001 0 0 1 733.1 628.875V629.4A137.1750000000001 137.1750000000001 0 0 1 693.2 725.775L608.075 811.5A135.6750000000001 135.6750000000001 0 0 1 512 851.475A136.2 136.2 0 0 1 415.325 811.5L330.2 725.325A135.6750000000001 135.6750000000001 0 0 1 290.3 629.475V628.95A137.1750000000001 137.1750000000001 0 0 1 330.2 532.575L415.925 446.85A136.5 136.5 0 0 1 483.05 410.1L344.5250000000001 418.575A134.55 134.55 0 0 1 253.475 383.4C229.55 361.5750000000001 212.975 341.85 209.3 308.4L181.625 309.975A136.575 136.575 0 0 1 45.275 174V53.1A136.575 136.575 0 0 1 181.55 -83.1750000000001H302.45A136.575 136.575 0 0 1 438.725 53.1V174A136.575 136.575 0 0 1 302.45 309.975H281.1500000000001A69 69 0 0 0 344 351.525H678.95A68.775 68.775 0 0 0 741.8000000000001 310.5L721.025 309.975A135.6750000000001 135.6750000000001 0 0 1 585.2 174z" />
    <glyph glyph-name="other9"
      unicode="&#xF120;"
      horiz-adv-x="1024" d="M260.74666666 513.2A32.88 32.88 0 0 1 293.7866666600001 546A33.04 33.04 0 0 1 284.26666666 569.52C258.58666666 595.6800000000001 246.90666666 618.3199999999999 249.62666666 636.88C251.78666666 652 264.02666666 665.36 277.30666666 679.6C296.02666666 699.84 319.2266666600001 724.88 318.26666666 762.8C317.30666666 796 298.02666666 826.8 261.14666666 854.8A33.04 33.04 0 0 1 214.82666666 848A33.36 33.36 0 0 1 221.38666666 801.52C240.90666666 786.8 251.70666666 772.3199999999999 252.02666666 760.72C252.02666666 750.56 243.38666666 740.4 228.82666666 724.64C210.18666666 704.64 188.82666666 681.92 184.10666666 646.16C178.34666666 606.16 196.26666666 564.48 237.14666666 522.72A32.8 32.8 0 0 1 260.74666666 513.2zM461.9466666600001 513.2A32.88 32.88 0 0 1 494.9866666600001 546A33.04 33.04 0 0 1 485.46666666 569.52C459.78666666 595.6800000000001 448.1066666600001 618.3199999999999 450.8266666600001 636.88C452.9866666600001 652 465.3066666600001 665.36 478.5066666600001 679.6C497.3066666600001 699.84 520.42666666 724.88 519.4666666600001 762.8C518.5066666600001 796 499.22666666 826.8 462.34666666 854.8A33.04 33.04 0 0 1 416.0266666600001 848A33.36 33.36 0 0 1 422.5866666600001 801.52C442.1066666600001 786.8 452.90666666 772.3199999999999 453.22666666 760.72C453.22666666 750.56 444.5866666600001 740.4 430.0266666600001 724.64C411.4666666600001 704.64 390.0266666600001 681.92 385.3066666600001 646.16C379.5466666600001 606.16 397.4666666600001 564.48 438.3466666600001 522.72A32.8 32.8 0 0 1 461.9466666600001 513.2zM922.10666666 424.48A132.8000000000001 132.8000000000001 0 0 1 857.4666666600001 406.56A102.56 102.56 0 0 1 757.7066666600001 479.12H140.66666666C89.70666666 479.12 49.38666666 440 49.38666666 392.72V314.64A408 408 0 0 1 456.42666666 -93.36C551.54666666 -93.36 644.10666666 -56.24 717.30666666 3.1999999999999A429.8400000000001 429.8400000000001 0 0 1 837.14666666 176A138.48 138.48 0 1 1 922.02666666 424zM922.10666666 214.16A72 72 0 0 0 862.5066666600001 246.16A26.96 26.96 0 0 0 858.02666666 262.64C858.9866666600001 278.64 858.9866666600001 305.92 858.90666666 319.52A16 16 0 0 0 862.8266666600001 329.8400000000001A75.52 75.52 0 0 0 920.42666666 358.24A72.4 72.4 0 0 0 993.0666666600002 286.24A71.44 71.44 0 0 0 922.18666666 214.24zM663.06666666 513.2A33.36 33.36 0 0 1 687.06666666 569.76C661.4666666600001 595.9200000000001 649.7066666600001 618.56 652.42666666 637.12C654.18666666 652.16 666.66666666 665.6 679.6266666600001 680C698.42666666 700.24 721.6266666600001 725.28 720.5866666600001 763.2C719.54666666 796.4 700.3466666600001 827.2 663.4666666600001 855.2A32.88 32.88 0 0 1 617.4666666600001 849.04V848.64A33.04 33.04 0 0 1 623.78666666 802.3199999999999C643.30666666 787.6 654.1066666600001 773.12 654.5066666600001 761.52C654.5066666600001 751.36 645.8666666600001 741.2 631.2266666600001 725.44C612.66666666 705.36 591.2266666600001 682.72 586.5066666600001 646.96C580.7466666600001 606.96 598.66666666 565.28 639.54666666 523.52A32.8 32.8 0 0 1 663.54666666 513.5999999999999z" />
    <glyph glyph-name="other10"
      unicode="&#xF121;"
      horiz-adv-x="1024" d="M788.45 215.175C758.45 230.7 728.45 239.625 670.325 254.175L665.975 255.225C644.15 260.625 628.025 264.75 615.4250000000001 268.575V274.275V276.6A231.7500000000001 231.7500000000001 0 0 0 592.1750000000001 308.175A306.6 306.6 0 0 1 629.6750000000001 379.2000000000001A146.475 146.475 0 0 1 671.15 435.825A151.725 151.725 0 0 1 668.525 564A329.475 329.475 0 0 1 667.7 638.325A272.7 272.7 0 0 1 659.6750000000001 678.45A160.575 160.575 0 0 0 690.725 682.275A152.5500000000001 152.5500000000001 0 0 0 802.25 630.6C845.75 581.7 837.8000000000001 507.15 834.65 478.05C850.475 458.025 849.65 427.05 841.775 404.7A55.8 55.8 0 0 0 815.6 372.0750000000001A213.6 213.6 0 0 0 765.4250000000001 276.45A116.25 116.25 0 0 1 765.4250000000001 264.525A61.125 61.125 0 0 1 788.525 214.9499999999999zM815.9 198.75C882.0500000000001 168.75 989.675 167.925 989.675 87.225V-33.9H880.9250000000001V79.05C880.9250000000001 129.4499999999999 857.15 169.65 816.0500000000001 199.05zM518.975 304.725V289.725C518.975 154.725 810.5 214.725 810.5 72.225V-34.5H34.325V72.675C34.325 214.35 324.5 164.025 324.5 301.9500000000001C324.5 314.475 324.95 290.0250000000001 324.5 304.725A272.85 272.85 0 0 0 259.4 421.9500000000001A69.825 69.825 0 0 0 225.5 461.9250000000001C214.85 489.0000000000001 214.1 527.1750000000001 234.5 552.9750000000001C230.675 587.325 220.4 678.75 276.875 738.6000000000001A203.7000000000001 203.7000000000001 0 0 0 422 801.9A203.325 203.325 0 0 0 566.975 738.525C623.525 678.525 613.25 587.25 609.125 551.625C629.75 527.0999999999999 628.9250000000001 489.15 618.35 461.625A69.75 69.75 0 0 0 584.3000000000001 421.65A257.625 257.625 0 0 0 518.975 304.425z" />
    <glyph glyph-name="other11"
      unicode="&#xF122;"
      horiz-adv-x="1024" d="M878.4 413.52C877.28 607.5999999999999 713.36 765.52 512 765.52S146.56 607.9200000000001 145.6 413.52C67.28 413.52 3.76 352 3.76 276.56V139.68C3.76 64.16 67.28 2.88 145.6 2.88H165.68A50.88 50.88 0 0 1 216.48 53.68V413.68C217.36 569.8399999999999 349.44 696.8 512 696.8S807.52 568.8 807.52 411.6V53.68A50.88 50.88 0 0 1 858.32 2.88H878.64C957.04 2.88 1020.48 64.16 1020.48 139.84V276.56C1020.24 351.9999999999999 956.72 413.5199999999999 878.4 413.5199999999999z" />
    <glyph glyph-name="other12"
      unicode="&#xF123;"
      horiz-adv-x="1024" d="M640.64 664A285.36 285.36 0 0 0 843.36 663.12C844 669.92 844.48 677.04 844.48 684.0799999999999A202.32 202.32 0 0 1 492.48 820.64A351.3600000000001 351.3600000000001 0 0 0 578.4 753.36A365.8400000000001 365.8400000000001 0 0 0 640.64 664zM350.48 86.48H413.36L388.24 157.76C537.6 186.16 651.04 325.2 651.04 492.56C651.04 680.3199999999999 508.16 832.56 331.8400000000001 832.56S12.72 680 12.72 492.48C12.72 326.7200000000001 124.08 188.48 271.36 158.64L250.4 86.64H304.88L296 55.52A54.24 54.24 0 0 1 311.36 0.48A18.4 18.4 0 0 0 314.48 -22.8000000000001L272.88 -88.96A18.48 18.48 0 0 1 280.88 -115.6A24.48 24.48 0 0 1 291.6 -118.08A22.8 22.8 0 0 1 310.8 -108.08L352.4000000000001 -42.08A54.08 54.08 0 0 1 343.36 26.96A18.4 18.4 0 0 0 338.24 45.6L350.32 86.48zM301.92 695.12A252.56 252.56 0 0 1 210.24 648C152.64 600 132.48 534 150.24 452.24A26.96 26.96 0 0 0 129.84 420.24A25.68 25.68 0 0 0 124.08 419.6A26.8 26.8 0 0 0 98 440C69.92 568.8 124.96 646.48 176 689.04A300 300 0 0 0 289.68 747.28A26.8 26.8 0 0 0 302 695.04zM1011.28 363.6C1011.28 523.04 890.16 652.4 740.72 652.4A252.8 252.8 0 0 1 652.72 636.4A387.36 387.36 0 0 0 680.24 492.4A378.56 378.56 0 0 0 578.8 232A365.04 365.04 0 0 0 527.1999999999999 186.4A269.04 269.04 0 0 1 687.2 80.48L676.96 35.12H705.2L702.88 27.12A43.6 43.6 0 0 1 715.12 -16.8000000000001A7.28 7.28 0 0 0 716.32 -26.08L686.88 -72A18.56 18.56 0 0 1 694.88 -98.64A24.64 24.64 0 0 1 705.6 -101.12A22.8 22.8 0 0 1 724.8000000000001 -91.12L753.92 -44.96A43.2 43.2 0 0 1 746.8000000000001 10.0799999999999A8 8 0 0 0 744.5600000000001 17.6L749.76 35.52H776.96L765.84 76.48C903.36 90.24 1011.04 213.76 1011.04 364.0800000000001zM806.8000000000001 168.64A26.72 26.72 0 0 0 771.6800000000001 182.88A26.96 26.96 0 0 0 785.84 218.16C834.5600000000001 239.04 870 279.12 880.8000000000001 325.52A26.8 26.8 0 1 0 932.96 313.44A212.64 212.64 0 0 0 806.8000000000001 168.64z" />
    <glyph glyph-name="other13"
      unicode="&#xF124;"
      horiz-adv-x="1024" d="M343.4000000000001 822.3H208.4A135 135 0 0 1 73.4 687.3V552.3A135 135 0 0 1 208.4 417.3H343.4000000000001A135 135 0 0 1 478.4 552.3V687.3A135 135 0 0 1 343.4000000000001 822.3zM815.375 822.3H680.375A135 135 0 0 1 545.375 687.3V552.3A135 135 0 0 1 680.375 417.3H815.375A135 135 0 0 1 950.375 552.3V687.3A135 135 0 0 1 815.45 822.3zM343.4000000000001 350.25H208.4A135 135 0 0 1 73.4 215.25V80.25A135 135 0 0 1 208.4 -54.75H343.4000000000001A135 135 0 0 1 478.4 80.25V215.25A135 135 0 0 1 343.4000000000001 350.25zM815.375 350.25H680.375A135 135 0 0 1 545.375 215.25V80.25A135 135 0 0 1 680.375 -54.75H815.375A135 135 0 0 1 950.375 80.25V215.25A135 135 0 0 1 815.45 350.25z" />
    <glyph glyph-name="other14"
      unicode="&#xF125;"
      horiz-adv-x="1024" d="M990.575 268.525A31.05 31.05 0 0 1 971.45 297.175A68.925 68.925 0 0 0 923.75 390.25A66.6 66.6 0 0 0 971.525 433.225A25.875 25.875 0 0 1 990.65 459.475V631.375A74.4 74.4 0 0 1 916.625 705.4H806.825A23.925 23.925 0 0 1 782.975 681.55V619.525A23.85 23.85 0 1 0 735.2 619.525V681.475A23.925 23.925 0 0 1 711.35 705.325H105.05A71.85 71.85 0 0 1 33.425 634V457.075A25.875 25.875 0 0 1 52.55 430.825A74.55 74.55 0 0 0 105.05 361.6A73.8 73.8 0 0 0 52.55 292.375C40.55 294.775 33.425 282.85 33.425 270.925V94A71.85 71.85 0 0 1 105.05 22.375H713.6750000000001A23.925 23.925 0 0 1 737.525 46.225V120.55A23.925 23.925 0 0 0 761.375 144.4A25.65 25.65 0 0 0 785.225 120.55V46.525A23.925 23.925 0 0 1 809.075 22.675H918.875A71.85 71.85 0 0 1 990.5 94.3V268.525zM262.55 526.3H556.1750000000001A22.05 22.05 0 0 0 577.625 502.45A22.5 22.5 0 0 0 553.775 478.6H262.55A23.85 23.85 0 0 0 262.55 526.375zM236.3 354.475A23.925 23.925 0 0 0 260.15 378.3250000000001H551.375A22.5 22.5 0 0 0 575.225 354.475A25.65 25.65 0 0 0 551.375 330.625H260.15A25.65 25.65 0 0 0 236.3 354.475zM560.9 194.5H269.75A22.5 22.5 0 0 0 245.9 218.35A23.925 23.925 0 0 0 269.75 242.2H560.9A23.925 23.925 0 0 0 584.75 218.35A22.5 22.5 0 0 0 560.9 194.5zM782.9 239.5A23.925 23.925 0 0 0 759.0500000000001 215.65A22.5 22.5 0 0 0 735.2 239.5V309.1A23.85 23.85 0 1 0 782.975 309.1zM782.9 430.45A23.85 23.85 0 1 0 735.125 430.45V500.05A23.85 23.85 0 1 0 782.9 500.05z" />
    <glyph glyph-name="other15"
      unicode="&#xF126;"
      horiz-adv-x="1024" d="M795.2 469.54166667L821.375 492.56666667C910.625 569.29166667 973.025 732.5666666699999 926.375 778.76666667S703.625 751.01666667 640.625 673.24166667L617.6750000000001 647.0666666699999L224.15 779.51666667A60.675 60.675 0 0 1 180.5 667.46666667L482 492.49166667L208.7 181.31666667L131.9 225.79166667A33.525 33.525 0 0 1 91.475 173.2916666699999L321.875 -57.48333333A33.525 33.525 0 0 1 374.375 -17.0583333300001L330.05 60.0416666699999L640.7 333.49166667L815.3000000000001 31.6916666699999A60.6 60.6 0 0 1 927.125 75.49166667z" />
    <glyph glyph-name="other16"
      unicode="&#xF127;"
      horiz-adv-x="1024" d="M936.72 325.28V354.48C939.36 487.28 899.84 599.2 822.4 678.16A369.7600000000001 369.7600000000001 0 0 1 689.28 764.48C681.28 836.48 603.44 892.48 508.8 892.48S336 836.24 328 764.48A369.6800000000001 369.6800000000001 0 0 1 195.04 678.24C117.68 599.2 78.16 487.52 80.8 355.12V319.36A91.76 91.76 0 0 1 56.8 225.92A96.96 96.96 0 0 1 117.6 160A96.88 96.88 0 0 1 168 145.44C204.8 -15.4400000000001 338.4000000000001 -124.72 512.88 -124.72S820.64 -15.2 856.88 145.76A16.48 16.48 0 0 1 860.4 145.76A96.96 96.96 0 0 1 921.2 167.12A96.56 96.56 0 0 1 967.04 226.24A92.88 92.88 0 0 1 936.48 325.6M356.32 517.5999999999999C359.12 512.96 425.6 403.36 550.88 355.8400000000001A695.3599999999999 695.3599999999999 0 0 1 654.88 328C723.6 313.44 788.48 299.68 832.64 242.32A16.4 16.4 0 0 1 834.16 240.64V237.76A400.0000000000001 400.0000000000001 0 0 0 829.44 175.84C772.64 85.04 678.32 25.52 561.52 12.72A59.28 59.28 0 0 1 514.8 32C485.6 32 461.92 16 461.92 -3.28S485.92 -38.5600000000001 514.8 -38.5600000000001C540.96 -38.5600000000001 562.8000000000001 -25.84 566.72 -9.12A410.8800000000001 410.8800000000001 0 0 1 674 17.84A366.1600000000001 366.1600000000001 0 0 1 800 101.6Q808.5600000000001 110.3199999999999 816.4 119.6C774.08 -9.2 661.04 -92 513.44 -92.08H512C322.56 -92.08 190.32 43.36 190.32 237.6V256.0800000000001C190.32 264.0800000000001 191.28 286.24 192.64 307.6C296 344 338.56 449.12 340.48 453.84L356.48 517.28M424.56 222.96A61.2 61.2 0 1 0 363.36 284.16A61.28 61.28 0 0 0 424.56 222.96M709.6800000000001 222.96A60.24 60.24 0 1 0 649.44 283.2A60.24 60.24 0 0 0 709.6800000000001 222.96M709.6800000000001 222.96z" />
    <glyph glyph-name="other17"
      unicode="&#xF128;"
      horiz-adv-x="1024" d="M175.475 749.325L550.475 843.225A33.075 33.075 0 0 0 590.225 819.75A28.575 28.575 0 0 0 591.2 810.4499999999999V-42.975A32.775 32.775 0 0 0 558.95 -76.2A32.325 32.325 0 0 0 552.125 -75.6750000000001L177.5 -6A53.325 53.325 0 0 0 134.45 45.375V698.475A52.5 52.5 0 0 0 175.475 749.325zM678.725 4.425H830.375A59.1 59.1 0 0 1 889.5500000000001 63.6V706.5A59.1 59.1 0 0 1 830.375 765.675H678.8000000000001V4.425zM455.75 454.875C433.25 454.875 412.7 424.05 412.7 385.425S431.3 315.975 455.75 315.975S498.8 346.8 498.8 385.425S478.25 454.875 455.75 454.875z" />
    <glyph glyph-name="other18"
      unicode="&#xF129;"
      horiz-adv-x="1024" d="M286.96 609.04A225.04 225.04 0 1 1 512 834.16A225.04 225.04 0 0 1 286.96 609.04zM583.44 378.4L512 306.9600000000001L440.56 378.4A450.3199999999999 450.3199999999999 0 0 1 61.84 -66.16H962.16A450.3199999999999 450.3199999999999 0 0 1 583.44 378.4zM512 -1.84L434.9600000000001 75.1999999999999L512 306.64L589.04 75.12z" />
    <glyph glyph-name="other19"
      unicode="&#xF12A;"
      horiz-adv-x="1024" d="M827 -51.75H197A48.45 48.45 0 0 0 148.625 -3.375V674.55A48.45 48.45 0 0 0 197 722.925H294.125A48.45 48.45 0 0 1 342.5 674.55H681.5A48.45 48.45 0 0 1 729.875 722.925H827A48.45 48.45 0 0 0 875.375 674.55V-3.45A48.225 48.225 0 0 0 827 -51.75zM729.875 577.725H294.125A48.375 48.375 0 0 1 294.125 480.9H729.875A48.375 48.375 0 1 1 729.875 577.7249999999999zM729.875 384.075H294.125A48.375 48.375 0 0 1 294.125 287.25H729.875A48.375 48.375 0 1 1 729.875 384.075zM729.875 190.35H294.125A48.375 48.375 0 1 1 294.125 93.525H729.875A48.375 48.375 0 1 1 729.875 190.35zM633.0500000000001 722.85H390.95A48.375 48.375 0 0 0 390.95 819.675H633.0500000000001A48.375 48.375 0 0 0 633.0500000000001 722.85z" />
    <glyph glyph-name="other20"
      unicode="&#xF12B;"
      horiz-adv-x="1024" d="M843.5 349.61666667V335.21666667H839A58.35 58.35 0 0 0 842.6 317.14166667V-19.38333333A52.5 52.5 0 1 0 737.6 -19.38333333V317.14166667A58.35 58.35 0 0 0 741.2 335.21666667H738.5V349.61666667C678.0500000000001 381.19166667 633.5 466.0166666699999 633.5 567.11666667C634.25 694.16666667 704.6 797.66666667 790.325 797.66666667S946.4 693.9416666699999 946.4 566.74166667C947.3 465.71666667 904.025 380.89166667 843.575 349.24166667zM357.2750000000001 371.21666667H322.1V336.04166667H318.5A58.35 58.35 0 0 0 322.1 317.66666667V-18.85833333A52.5 52.5 0 1 0 217.1 -18.85833333V317.6666666700001A64.125 64.125 0 0 0 220.7 335.7416666700001H217.1V371.21666667H182A105.675 105.675 0 0 0 77 477.6416666699999V691.46666667A106.05 106.05 0 0 0 147.05 791.59166667V498.41666667A19.05 19.05 0 0 1 164.225 478.54166667A18.45 18.45 0 0 1 181.4 498.41666667V797.66666667H250.85V497.66666667A19.05 19.05 0 0 1 268.025 477.79166667A18.45 18.45 0 0 1 285.125 497.66666667V797.66666667H354.5V497.66666667A19.05 19.05 0 0 1 371.675 477.79166667A18.45 18.45 0 0 1 388.85 497.66666667V790.69166667A106.05 106.05 0 0 0 458.3 690.5666666699999V477.71666667A101.025 101.025 0 0 0 357.2750000000001 371.21666667z" />
    <glyph glyph-name="other21"
      unicode="&#xF12C;"
      horiz-adv-x="1024" d="M963.575 -53.7666666600001zM935.375 -67.8666666600001V-73.4916666600001L791.45 45.08333334H455.525A169.875 169.875 0 0 0 286.175 214.35833334V552.98333334A60.675 60.675 0 0 0 342.6500000000001 609.4583333400001H907.1A56.625 56.625 0 0 0 963.575 552.98333334V-53.8416666600001C960.725 -62.31666666 952.25 -67.94166666 935.375 -67.94166666zM60.425 126.83333334V722.33333334A56.625 56.625 0 0 0 116.9 778.80833334H681.35A56.625 56.625 0 0 0 737.825 722.33333334V665.85833334H286.175C257.975 663.00833334 229.7 637.65833334 229.7 609.38333334V211.5083333399999L88.625 95.7833333399999V101.33333334C71.675 101.33333334 63.2 106.95833334 60.425 115.43333334V126.83333334zM60.425 73.20833334z" />
    <glyph glyph-name="other22"
      unicode="&#xF12D;"
      horiz-adv-x="1024" d="M267.5 520.425C266.075 533.7 265.325 547.125 265.25 560.4749999999999C265.25 731.85 375.875 829.35 512 829.35A236.1 236.1 0 0 0 706.325 735.825A840.45 840.45 0 0 0 528.35 608.325A728.4 728.4 0 0 0 267.5 520.425zM284.6 440.175C280.7 451.95 277.1 464.025 274.7 476.175A825.825 825.825 0 0 1 545.9 566.8499999999999A795 795 0 0 1 728.825 699A267.0750000000001 267.0750000000001 0 0 0 743.825 662.025A682.4999999999999 682.4999999999999 0 0 0 550.775 519A785.9250000000002 785.9250000000002 0 0 0 284.675 440.25zM512 139.125C401.075 139.125 304.475 180.225 253.4 240.975A613.425 613.425 0 0 0 382.25 297.075A289.2 289.2 0 0 0 302.975 396.9A884.4 884.4 0 0 1 568.25 477.75A688.7250000000001 688.7250000000001 0 0 1 755.3000000000001 611.775A351.375 351.375 0 0 0 759.125 560.55C759.125 448.05 711.5 350.55 640.4 295.8A618.15 618.15 0 0 0 767.9 237.9C716.375 178.8 621.275 139.125 512 139.125zM63.2 -61.35A276.075 276.075 0 0 0 68.75 39C84.8 99 126.125 157.9499999999999 218.75 219.525C276.575 144.975 386.1500000000001 94.65 512.075 94.65C636.0500000000001 94.65 744.125 143.475 802.625 216.0749999999999C890.9 149.6999999999999 935.9 92.925 956.3 37.5749999999999C968 5.775 960.725 -34.0500000000001 960.725 -61.275z" />
    <glyph glyph-name="other23"
      unicode="&#xF12E;"
      horiz-adv-x="1024" d="M832.25 803.25H191.15A48.525 48.525 0 0 1 142.85 754.95V13.05A48.525 48.525 0 0 1 191.15 -35.25H832.85A48.525 48.525 0 0 1 881.15 13.05V754.35A48.825 48.825 0 0 1 832.475 803.25zM448.1 96.75H278.975A30 30 0 0 0 278.975 156.75H447.5A30 30 0 0 0 477.5 126.75A30 30 0 0 0 448.1 96.75zM592.4 242.85H278.975A30 30 0 0 0 278.975 302.85H591.875A30 30 0 0 0 621.875 272.85A30 30 0 0 0 592.4 242.85zM737 436.5A14.55 14.55 0 0 0 725.825 435.9L630.125 476.25A18.75 18.75 0 0 1 614.225 476.25L520.55 435A13.05 13.05 0 0 0 512 436.5A13.2 13.2 0 0 0 508.475 444V753.15H740.975V445.65A11.4 11.4 0 0 0 737 436.5z" />
    <glyph glyph-name="other24"
      unicode="&#xF12F;"
      horiz-adv-x="1024" d="M771.04 74C767.28 134.0800000000001 839.28 162.96 863.36 165.44C979.68 177.76 997.76 78 985.92 27.12C970.8 -37.6800000000001 855.76 -124.88 755.36 -124.88C711.6 -124.88 460.96 -120.88 450.8 121.84C448 196.0800000000001 582.96 300.8 513.52 372.88C488 399.04 347.76 386.88 335.2 450.48C325.92 497.2 403.44 600.72 317.44 638.72C288.56 651.52 245.44 658.16 216.24 639.2C180.56 616 214.96 556.88 212.32 542.0799999999999C205.84 506.16 150.24 468.96 154.8 440C158.72 416 202.8 429.28 214.88 420.24C235.36 404.72 211.44 371.52 217.44 363.76C221.52 358.48 234.96 364.32 245.28 362.9600000000001C247.12 362.9600000000001 210.48 348.0800000000001 221.84 341.04C257.68 318.8 230.48 300.4 249.84 291.2C257.8400000000001 287.2 360.32 314.24 390.4000000000001 276.0800000000001C438.88 214.56 414.4000000000001 43.28 410.08 26.64C379.2 -85.36 75.44 -189.3600000000001 66.72 23.36C62.4 129.44 124.32 171.6 121.28 215.36C114 321.2000000000001 34.96 320 34.96 428.64C34.96 511.2 138.96 552.88 142.72 616.4C143.36 626.16 102.72 738.72 166.16 814.72S329.68 880 456 891.84C561.12 901.76 648 839.04 707.92 789.6C796.96 715.76 754.16 562.24 825.36 512C898.32 460.8 957.28 425.68 957.28 342.9600000000001C957.28 321.68 914.24 211.36 823.76 197.28C684 175.52 704.8000000000001 49.76 745.84 34.88C777.84 23.4399999999999 860.24 5.36 857.12 84.56C856.4 102.56 810.8000000000001 134.64 771.04 73.92zM771.04 74" />
    <glyph glyph-name="pandora"
      unicode="&#xF130;"
      horiz-adv-x="1024" d="M600.64166666 834H167.96666666V-66H479.66666666V144.975H600.6416666599999C788.81666666 144.975 941.36666666 299.25 941.36666666 489.525S788.81666666 834 600.64166666 834z" />
    <glyph glyph-name="patreon"
      unicode="&#xF131;"
      horiz-adv-x="1024" d="M964.66666666 482A294.88 294.88 0 1 0 670.26666666 777.2A294.7200000000001 294.7200000000001 0 0 0 964.66666666 482zM144.6666666600001 -9.2H288.6666666600001V777.2H144.6666666600001z" />
    <glyph glyph-name="pinterest"
      unicode="&#xF132;"
      horiz-adv-x="1024" d="M244.72 306.4A19.6 19.6 0 0 1 273.2800000000001 320.64C275.92 330.64 282.1600000000001 355.8400000000001 284.88 366.4C288.7200000000001 380.7200000000001 287.2 385.68 276.88 398.4C253.92 425.44 239.28 460.56 239.28 510.4C239.28 654.4 346.96 783.28 519.84 783.28C672.88 783.28 756.88 689.76 756.88 564.88C756.72 400 684 261.4400000000001 576 261.4400000000001C516.4 261.4400000000001 472 310.7200000000001 486.08 371.2000000000001C503.28 443.2000000000001 536.4 521.2800000000001 536.4 573.44C536.4 620.08 511.36 658.96 459.52 658.96C398.56 658.96 349.6 595.9200000000001 349.6 511.4400000000001A219.04 219.04 0 0 1 368 421.28L294.56 110.8C272.8 18.64 291.2800000000001 -94.32 292.88 -105.76A8 8 0 0 1 306.4000000000001 -109.0400000000001C312 -101.6800000000001 384.64 -12.08 409.2800000000001 77.4399999999999C416.32 102.8 449.2800000000001 234.0800000000001 449.2800000000001 234.0800000000001C469.04 196.3199999999999 526.96 163.12 588.48 163.12C771.76 163.12 896 330.0800000000001 896 553.5999999999999C896 722.56 752.88 880 535.28 880C264.56 880 128 685.92 128 524.0799999999999C128 426 165.12 338.88 244.72 306.4z" />
    <glyph glyph-name="plans"
      unicode="&#xF133;"
      horiz-adv-x="1024" d="M270.08 681.92C270.08 665.92 259.36 649.92 243.28 649.92H109.12C93.12 649.92 82.32 665.92 82.32 681.92S93.04 713.92 109.12 713.92H243.28C259.2800000000001 708.56 270.08 697.92 270.08 681.92zM940.8 392C940.8 376 930.08 360 914 360H683.28C667.28 360 656.48 376 656.48 392S667.2 424 683.28 424H914C930 418.64 940.8 408 940.8 392zM940.8 681.76C940.8 665.76 930.08 649.76 914 649.76H474A34.64 34.64 0 0 0 442 681.76C442 697.76 452.72 713.76 468.8 713.76H908.8Q940.8 705.76 940.8 681.76zM479.36 386.8C479.36 370.8 468.64 354.8 452.56 354.8H109.12C93.12 360.16 82.32 370.8 82.32 386.8S93.04 418.8 109.12 418.8H447.12A34.64 34.64 0 0 0 479.12 386.8zM479.36 386.8M355.92 563.8399999999999A121.44 121.44 0 0 0 232.48 687.28A121.44 121.44 0 0 0 355.92 810.72A121.44 121.44 0 0 0 479.36 687.28A121.44 121.44 0 0 0 355.92 563.8399999999999zM355.92 751.6800000000001A65.28 65.28 0 0 1 291.92 687.6800000000001A62 62 0 0 1 355.92 623.6800000000001A64 64 0 0 1 355.92 752.48zM355.92 751.6800000000001M940.8 75.6C940.8 59.6 930.08 48.8 919.36 48.8H629.6C618.88 48.8 608.16 59.52 608.16 75.6S618.88 102.4 629.6 102.4H919.36C930.08 102.4 940.8 91.68 940.8 75.6zM940.8 75.6M940.8 75.6C940.8 59.6 930.08 43.6 914 43.6H597.36C581.36 48.96 565.36 59.6 565.36 75.6S576.08 107.6 592.16 107.6H908.72A30.96 30.96 0 0 0 940.72 75.6zM420.32 75.6C420.32 59.6 409.6 43.6 393.52 43.6H109.12C93.12 48.96 82.32 59.6 82.32 75.6S93.04 107.6 109.12 107.6H388.1600000000001A30.96 30.96 0 0 0 420.1600000000001 75.6zM565.2 274.16A123.44 123.44 0 1 0 688.64 397.52A124.8 124.8 0 0 0 565.2 274.16zM565.2 456.56A65.28 65.28 0 0 1 501.2 392.56C501.2 354.9600000000001 528 333.52 565.2 333.52A65.28 65.28 0 0 1 629.2 397.52C629.2 435.12 597.2 456.56 565.2 456.56zM565.2 456.56M490.08 -42.48A123.44 123.44 0 1 0 613.52 80.96A124.8 124.8 0 0 0 490.08 -42.48zM490.08 139.92A64 64 0 1 1 554.08 75.92C548.72 113.44 522.08 139.92 490.08 139.92zM490.08 139.92" />
    <glyph glyph-name="portfolio"
      unicode="&#xF134;"
      horiz-adv-x="1024" d="M941.93333333 65.55A58.575 58.575 0 0 0 883.50833333 7.125H183.15833333A58.575 58.575 0 0 0 124.73333333 65.55V532.425H942.23333333zM941.93333333 527.25H124.73333333V702.45A58.575 58.575 0 0 0 183.15833333 760.875H358.28333333A58.575 58.575 0 0 0 416.6333333300001 702.45V644.025H883.50833333A58.5 58.5 0 0 0 941.93333333 585.675z" />
    <glyph glyph-name="poshmark"
      unicode="&#xF135;"
      horiz-adv-x="1024" d="M530 593.12V165.68A164.4 164.4 0 1 0 353.92 336V439.28A267.7600000000001 267.7600000000001 0 1 1 633.92 171.92C633.92 179.92 632.48 593.04 632.48 593.04zM494 174.88V602.3199999999999A164.4 164.4 0 1 0 670.08 432V328.7200000000001A267.7600000000001 267.7600000000001 0 1 1 390.08 596.0799999999999C390.08 588.0799999999999 391.52 174.96 391.52 174.96z" />
    <glyph glyph-name="price"
      unicode="&#xF136;"
      horiz-adv-x="1024" d="M925.86666667 415.3066666700001L931.06666667 669.30666667A123.76 123.76 0 0 1 808.66666667 793.8666666700001L548.82666667 799.22666667C543.70666667 799.22666667 535.70666667 800.42666667 532.0266666699999 796.82666667L53.94666667 327.06666667C45.94666667 319.5466666700001 51.70666667 301.7866666700001 59.14666667 294.10666667L411.86666667 -64.8533333299999C419.38666667 -72.8533333299999 436.98666667 -78.1333333299999 444.58666667 -70.5333333299999L922.66666667 399.22666667C926.26666667 402.74666667 925.62666667 410.26666667 925.78666667 415.22666667zM799.22666667 659.8666666700001A70.88 70.88 0 1 0 698.66666667 660.74666667A71.04 71.04 0 0 0 798.98666667 659.86666667zM368.98666667 200.0266666700001L346.02666667 177.4666666700001A18.8 18.8 0 0 0 319.62666667 204.3466666700001L342.58666667 226.66666667C310.58666667 268.74666667 310.58666667 317.06666667 345.78666667 351.3066666699999A18.8 18.8 0 0 0 372.18666667 324.4266666699999C336.90666667 289.78666667 370.50666667 250.02666667 381.70666667 238.66666667S432.02666667 192.98666667 467.30666667 227.70666667C489.30666667 249.3066666699999 485.70666667 263.94666667 468.50666667 316.26666667L458.66666667 345.5466666700001C441.06666667 398.74666667 429.46666667 433.94666667 469.14666667 472.90666667C504.34666667 507.3866666700001 552.82666667 507.1466666700001 594.66666667 474.66666667L615.46666667 495.06666667A18.8 18.8 0 0 0 641.86666667 468.18666667L621.06666667 447.7866666700001C652.50666667 406.1066666700001 651.54666667 357.94666667 616.58666667 323.6266666700001A18.88 18.88 0 0 0 590.18666667 350.5066666700001C625.94666667 385.62666667 592.98666667 424.74666667 582.18666667 435.8666666700001C559.22666667 459.22666667 524.50666667 474.2666666700001 496.10666667 446.3466666700001C474.10666667 424.6666666700001 477.70666667 410.1066666700001 494.98666667 357.6266666700001L504.58666667 328.5066666700001C522.18666667 275.3866666700001 533.70666667 240.5066666700001 494.02666667 201.3066666700002C458.66666667 166.9066666700002 410.66666667 167.2266666700001 368.98666667 200.0266666700001zM375.46666667 208.7466666700001" />
    <glyph glyph-name="qobuz"
      unicode="&#xF137;"
      horiz-adv-x="1024" d="M504.32 397.36M473.76 397.36A30.56 30.56 0 1 1 534.88 397.36A30.56 30.56 0 1 1 473.76 397.36zM504 756.56A359.1200000000001 359.1200000000001 0 1 1 720 110.48L672 158.48A42 42 0 0 0 672 217.92A42 42 0 0 0 731.44 217.92L781.12 168.24A359.1200000000001 359.1200000000001 0 0 1 504 756.56zM504 259.8400000000001A137.52 137.52 0 1 0 641.92 397.36A137.68 137.68 0 0 0 504 259.8400000000001zM905.68 118.3199999999999A489.76 489.76 0 1 1 769.6800000000001 -13.12L874.96 -118.4L1008.72 15.36zM812.72 18.0799999999999L780.08 50.72A445.36 445.36 0 0 0 736.48 20A443.68 443.68 0 1 0 872.48 151.1999999999999A445.7600000000001 445.7600000000001 0 0 0 840.48 109.04L872.96 76.56L939.36 10.16L880 -49.2z" />
    <glyph glyph-name="qqmusic"
      unicode="&#xF138;"
      horiz-adv-x="1024" d="M270.48 71.6C271.8400000000001 79.6 273.12 87.6 274.64 96.0799999999999A204.72 204.72 0 0 0 323.8400000000001 194.24A269.68 269.68 0 0 0 480.4 281.28A262.9600000000001 262.9600000000001 0 0 0 604.96 275.92C607.12 275.36 609.28 274.9600000000001 612.96 274.16L584.88 312.9600000000001L326.48 668.96A30.32 30.32 0 0 0 320.8800000000001 696.48A111.36 111.36 0 0 0 366.24 757.76A321.28 321.28 0 0 0 480.64 808C504 813.52 527.44 816 550.48 821.84A459.28 459.28 0 0 1 608.48 839.44C639.36 851.36 667.44 867.6 688 896C691.28 880 695.36 864 697.52 848A212.2400000000001 212.2400000000001 0 0 0 698.88 808A169.92 169.92 0 0 0 630.64 677.36A194.16 194.16 0 0 0 531.68 640C510.1599999999999 637.44 488.48 636.64 466.3999999999999 635.04A24 24 0 0 1 467.9999999999999 631.12L592.4799999999999 417.12Q653.68 312 714.88 206.64A388.0000000000001 388.0000000000001 0 0 0 739.92 161.68A171.44 171.44 0 0 0 736.8000000000001 21.12C708.48 -42.4 658.48 -83.84 593.44 -109.12A270.08 270.08 0 0 0 475.6 -127.28C413.44 -122.96 358.96 -101.44 316.8 -55.28A185.36 185.36 0 0 0 270.56 71.52C272 80 270.48 65.4399999999999 270.48 71.6z" />
    <glyph glyph-name="service"
      unicode="&#xF139;"
      horiz-adv-x="1024" d="M816 270.48A26.32 26.32 0 0 0 801.2 318.48C865.2 361.52 933.52 458.48 933.52 540.0799999999999A236.72 236.72 0 0 1 530.48 709.04A26.32 26.32 0 0 0 493.52 709.04A236.88 236.88 0 1 1 221.6 328A26.32 26.32 0 0 0 198 280.88A289.6 289.6 0 1 0 512 763.28A289.44 289.44 0 0 0 986.08 540.16C986.08 439.92 907.04 326.64 830.64 274.9600000000001A26.32 26.32 0 0 0 815.84 270.4zM816 270.48M773.6 180.72A80.64 80.64 0 0 0 716.16 204.72L616 304.88A26.32 26.32 0 1 0 653.2 342.16L753.44 241.68A29.12 29.12 0 0 1 793.44 241.68A28.56 28.56 0 0 1 793.44 281.68L505.44 561.6800000000001A26.32 26.32 0 1 0 542.16 600L830.8000000000001 319.44A81.2 81.2 0 0 0 773.6 180.72zM773.6 180.72M705.76 92.64A80.96 80.96 0 0 0 648.32 116.64L597.04 168A26.32 26.32 0 1 0 634.32 205.28L685.6800000000001 153.92A28.56 28.56 0 0 1 734.4 174.0800000000001A28.24 28.24 0 0 1 726.4 194.24L590.4 330.24A26.32 26.32 0 0 0 627.6800000000001 367.44L763.6800000000001 231.44A81.12 81.12 0 0 0 706.24 92.88zM705.76 92.64M628.08 14.96A80.64 80.64 0 0 0 570.6400000000001 38.96L558.08 51.6A26.32 26.32 0 1 0 595.3600000000001 88.8L608.0000000000001 75.92A29.2 29.2 0 0 1 648.0000000000001 75.92A28.56 28.56 0 0 1 648.0000000000001 115.92L620.96 142.96A26.32 26.32 0 1 0 658.24 180.24L685.28 153.1999999999999A81.2 81.2 0 0 0 627.84 14.5599999999999zM628.08 14.96M551.28 -61.84A80.64 80.64 0 0 0 493.84 -37.84L481.28 -25.2A26.32 26.32 0 1 0 518.5600000000001 12L531.12 -0.5600000000001A29.2 29.2 0 0 1 571.12 -0.5600000000001A28.56 28.56 0 0 1 571.12 39.4399999999999L560.24 50.3199999999999A26.32 26.32 0 0 0 597.84 88L608.72 77.12A81.2 81.2 0 0 0 551.28 -61.52zM255.28 210.16A81.2 81.2 0 0 0 197.84 348.8L284.56 435.6A83.12 83.12 0 0 0 399.36 435.6A81.12 81.12 0 0 0 399.36 320.7200000000001L312.8 234.24A80.64 80.64 0 0 0 255.36 210.24zM341.92 406.72A28.32 28.32 0 0 1 321.76 398.72L235.28 312A28.56 28.56 0 0 1 235.28 272A29.2 29.2 0 0 1 275.2800000000001 272L362.08 358A28.56 28.56 0 0 1 341.92 406.72zM341.92 406.72M332.96 132.88A81.2 81.2 0 0 0 275.52 271.52L362.08 358A83.2 83.2 0 0 0 476.96 358A81.36 81.36 0 0 0 476.96 243.2L390.4000000000001 156.64A80.64 80.64 0 0 0 332.96 132.64zM419.52 329.12A28.32 28.32 0 0 1 399.36 321.12L312.8 234.24A28.56 28.56 0 0 1 312.8 194.24A29.2 29.2 0 0 1 352.8 194.24L440 280.4A28.56 28.56 0 0 1 419.76 329.12zM419.52 329.12M410.56 55.28A81.2 81.2 0 0 0 353.12 193.92L440 280.4A83.2 83.2 0 0 0 554.8000000000001 280.4A81.36 81.36 0 0 0 554.8000000000001 165.6L468 79.04A80.64 80.64 0 0 0 410.56 55.04zM497.12 251.52A28.32 28.32 0 0 1 476.96 243.52L390.4000000000001 156.64A28.56 28.56 0 0 1 390.4000000000001 116.64A29.2 29.2 0 0 1 430.4000000000001 116.64L517.28 202.88A28.56 28.56 0 0 1 497.12 251.6zM497.12 251.52M488 -22.32A81.2 81.2 0 0 0 430.56 116.3199999999999L517.28 202.88A83.12 83.12 0 0 0 632.08 202.88A81.36 81.36 0 0 0 632 88L545.6 1.52A80.72 80.72 0 0 0 488.16 -22.48zM574.72 174A28.32 28.32 0 0 1 554.5600000000001 166L468 79.04A28.56 28.56 0 0 1 468 39.04A29.28 29.28 0 0 1 508 39.04L594.88 125.28A28.56 28.56 0 0 1 574.72 174zM389.2 456A81.2 81.2 0 0 0 331.76 594.64L494 746.64A26.32 26.32 0 1 0 530 708.24L368 557.04A28.4 28.4 0 0 1 368.64 517.04A29.2 29.2 0 0 1 408.64 517.04L506.56 601.2A26.32 26.32 0 0 0 540.88 561.2L444.88 478.64A79.2 79.2 0 0 0 388.88 456.16zM389.2 456" />
    <glyph glyph-name="shopee"
      unicode="&#xF13A;"
      horiz-adv-x="1024" d="M931.2 638.64H347.2C351.2 742.64 423.2800000000001 810.16 511.76 810.16S672 743.04 676 638.72H744C738.96 770.72 628.16 876 512 876S284.88 770.72 280 638.64H91.6A18.8 18.8 0 0 1 74 620.88V618.4L102.08 -18V-26.08C106.56 -70.4 138.88 -106.08 182.8 -107.6800000000001H832.64A89.12 89.12 0 0 1 917.52 -25.36V-24V-20.64L949.52 618.48V620.4A18.96 18.96 0 0 1 931.2 638.64zM899.2 570.88L869.9200000000001 -2.64A41.84 41.84 0 0 0 829.9200000000001 -44H192.56A43.76 43.76 0 0 0 150.08 -1.04L123.2 574.96H900.4zM514.16 93.12A173.52 173.52 0 0 0 394.9600000000001 146L353.6 97.36A223.2 223.2 0 0 1 512.88 32C610.8000000000001 32 670.4 90.4 670.4 162.0800000000001C670.4 227.76 632.08 260.56 579.2 283.04L517.76 309.2C481.28 323.76 445.76 338.4 445.76 376.7200000000001C445.76 412.56 475.52 434.48 521.12 434.48A142.56 142.56 0 0 0 619.6 394.48L656.72 439.44A192 192 0 0 1 520.8 496C435.68 496 373.68 443.12 373.68 372.56C373.68 307.52 421.68 273.44 464.8799999999999 255.2L526.8799999999999 228.48C568.2399999999999 210.24 598.88 197.44 598.88 156.48C598.64 118.64 567.9999999999999 93.12 514.16 93.12z" />
    <glyph glyph-name="shopify"
      unicode="&#xF13B;"
      horiz-adv-x="1024" d="M693.16266667 -71.168L722.176 697.6L736.85333333 682.66666667L811.7760000000001 677.03466667A9.04533333 9.04533333 0 0 0 820.3093333300001 669.44C820.90666666 664.74666667 921.94133333 -21.76 921.94133333 -21.76zM654.5066666700001 -79.7013333300001L633.6000000000001 -84.2240000000002L102.4 15.872S170.66666667 546.1333333299999 173.14133333 564.5653333299999C176.55466666 589.2266666599999 177.3226666600001 590.1653333299998 203.43466667 598.2719999999999L287.4880000000001 624.4693333299999C305.4933333300001 701.2693333299999 362.9226666700001 852.1386666599999 483.0720000000001 852.1386666699999A62.54933333 62.54933333 0 0 0 531.6266666700001 824.1493333299999H535.97866667C587.17866667 824.1493333299999 616.87466667 780.0319999999999 633.51466667 731.9039999999999L661.3333333300001 740.4373333299999A22.61333333 22.61333333 0 0 0 681.64266667 737.7919999999999L685.312 734.12266667zM531.54133333 691.62666667A271.1893333300001 271.1893333300001 0 0 1 521.30133333 774.05866667C496.6400000000001 761.2586666699999 468.4800000000001 727.296 453.4613333300001 657.0666666699999L531.456 686.336zM478.3786666700001 813.14133333C399.4453333400001 813.14133333 355.0720000000001 692.2239999999999 336.4693333300001 618.06933333L403.5413333300001 642.304C419.4986666600001 739.4986666699999 457.2160000000001 788.2239999999999 492.4586666700001 807.50933333A22.61333333 22.61333333 0 0 1 478.3786666700001 813.14133333zM495.4453333300001 421.7173333300001L531.3706666700001 526.336S507.0506666700001 540.07466667 457.8133333300001 540.07466667C329.8133333300001 540.07466667 266.7520000000001 456.7040000000001 266.7520000000001 370.5173333300002C266.7520000000001 268.1173333300001 371.2853333300002 265.3866666600001 371.2853333300002 203.0080000000002A35.75466667 35.75466667 0 0 0 333.5680000000002 167.3386666700002C292.6080000000002 167.3386666700002 243.9680000000002 208.1280000000002 243.9680000000002 208.1280000000002L219.392 128S266.6666666700001 71.76533333 359.0826666700001 71.76533333C435.8826666700001 71.76533333 493.22666667 128.42666666 493.22666667 216.832C493.22666667 328.704 365.8240000000001 346.96533333 365.8240000000001 394.752C365.8240000000001 403.28533333 368.7253333300001 438.272 425.5573333300001 438.272A168.02133333 168.02133333 0 0 0 495.6160000000002 421.80266667zM577.8773333300002 696.14933333L609.4506666700001 709.3760000000001C601.6 742.4 588.8 770.9013333299999 570.53866667 774.05866667A276.9920000000001 276.9920000000001 0 0 0 578.048 705.28V696.0640000000001z" />
    <glyph glyph-name="simfyafrica"
      unicode="&#xF13C;"
      horiz-adv-x="1024" d="M1016 442.96C991.36 554.96 916.16 554.96 916.16 554.96V553.44A432.0000000000001 432.0000000000001 0 0 1 889.84 597.6800000000001C945.84 544 898.64 823.84 529.84 842.8C207.36 859.6 101.52 536 101.52 536S3.52 469.44 3.52 353.36C3.52 238.56 104.8 198.56 158.88 197.68C219.68 37.68 370.96 -75.6 547.6800000000001 -75.6C762.32 -75.6 939.68 91.84 962.48 306.4C968.96 309.36 1038 344 1016 442.96zM846.72 652.16A408 408 0 0 1 315.2 709.44C438.1600000000001 836.16 676.32 841.36 846.72 652.16zM547.6800000000001 -53.4400000000001C382.88 -53.4400000000001 241.36 50.96 182.16 198.88C337.52 217.28 348 435.44 234.64 502.88A308.64 308.64 0 0 0 264 636.3199999999999A388.5600000000001 388.5600000000001 0 0 0 547.68 760C765.6 760 942.88 577.52 942.88 353.2000000000001S765.6 -53.4400000000001 547.6800000000001 -53.4400000000001zM722.72 183.52A187.28 187.28 0 0 0 592 168C540.8 181.68 496.64 220.3199999999999 460.8 282.88A22.16 22.16 0 1 1 422.32 260.8C464.32 187.6 517.52 141.92 580.5600000000001 124.8A210.8 210.8 0 0 1 635.2 117.68A235.52 235.52 0 0 1 744.96 145.12A22.16 22.16 0 0 1 722.64 183.44z" />
    <glyph glyph-name="skype"
      unicode="&#xF13D;"
      horiz-adv-x="1024" d="M312 864A280.56 280.56 0 0 1 32 584A278.08 278.08 0 0 1 60.72 468.96A461.1199999999999 461.1199999999999 0 0 1 52 384A460.56 460.56 0 0 1 512 -76A460.8000000000001 460.8000000000001 0 0 1 597.04 -67.28A278.08 278.08 0 0 1 712 -96A280.56 280.56 0 0 1 992 184A278.08 278.08 0 0 1 963.28 298.9600000000001A456.0000000000001 456.0000000000001 0 0 1 427.2800000000001 834.96A278.08 278.08 0 0 1 312 864zM312 784A197.76 197.76 0 0 0 407.04 760A40 40 0 0 1 434.56 756.3199999999999A383.44 383.44 0 0 0 512 764A379.44 379.44 0 0 0 892 384A383.44 383.44 0 0 0 884.48 306.48A40 40 0 0 1 888.24 278.9600000000001A200 200 0 0 0 617.04 8A40 40 0 0 1 589.52 11.76A383.44 383.44 0 0 0 512 4.24A379.44 379.44 0 0 0 132 382.88V384A383.44 383.44 0 0 0 139.52 461.52A40 40 0 0 1 136 488.96A200 200 0 0 0 312 784zM505.76 657.76C406.88 657.76 300.7200000000001 616 300.7200000000001 504C300.7200000000001 450.08 319.7600000000001 393.12 425.76 366.48L558.24 334C598.24 324.16 608.24 302 608.24 281.52C608.24 247.92 574.96 215.28 514.48 215.28C396.32 215.28 411.52 305.28 348.24 305.28A46.24 46.24 0 0 1 299.52 257.76C299.52 203.1999999999999 366.56 131.52 514.5600000000001 131.52C655.36 131.52 724.5600000000001 199.52 724.5600000000001 290.32C724.5600000000001 349.04 697.52 410.32 590.8000000000001 434.32L493.28 456.48C456.24 464.88 413.2800000000001 475.36 413.2800000000001 510.24S442.9600000000001 570.24 497.04 570.24C605.92 570.24 596.72 495.2 650.8000000000001 495.2C679.2 495.2 703.28 511.2 703.28 540.16C703.28 607.44 596.88 657.76 505.76 657.76z" />
    <glyph glyph-name="smile"
      unicode="&#xF13E;"
      horiz-adv-x="1024" d="M468.08 593.2L503.04 757.76A93.04 93.04 0 0 0 613.44 829.76L762.16 797.76A93.04 93.04 0 1 0 742.8000000000001 706.72L594.08 738.72L563.12 592.48A548.4800000000001 548.4800000000001 0 0 0 803.12 513.36A148.56 148.56 0 0 0 1024 389.04V388.08A148.56 148.56 0 0 0 968 269.44V263.68C968 77.6 760.96 -63.44 512 -63.44S59.68 77.28 59.84 260.0800000000001Q59.84 264.3200000000001 59.36 268.48A148.56 148.56 0 0 0 220.08 517.44A532.64 532.64 0 0 0 468.08 593.2zM900.08 336.0800000000001A54.56 54.56 0 1 1 837.12 424L809.9200000000001 397.92L778.72 419.12C703.6 470.24 618.08 499.12 535.36 501.2H488.56A441.92 441.92 0 0 1 244.88 423.28L214 402.32L186.8 427.92A55.44 55.44 0 1 1 125.68 337.12L155.12 323.6L152.64 291.6A184 184 0 0 1 152.64 264.4C152.64 138.3199999999999 308.8 30.3199999999999 511.36 30.3199999999999S874.24 139.04 874.4 267.92A153.76 153.76 0 0 1 874.4 291.92L872 323.2zM277.04 328.64A69.84 69.84 0 1 0 346.88 258.8A69.84 69.84 0 0 0 277.04 328.64zM602.8000000000001 328.64A69.84 69.84 0 1 0 672.64 258.8A69.84 69.84 0 0 0 602.8000000000001 328.64zM510.64 91.1999999999999C445.6 91.1999999999999 381.8400000000001 108.4 330 147.1999999999999A19.76 19.76 0 0 0 357.76 174.96A257.1200000000001 257.1200000000001 0 0 1 509.76 128.88C563.12 128.88 618.16 141.68 662.5600000000001 173.52A20.4 20.4 0 0 0 696.64 163.92A21.84 21.84 0 0 0 691.12 144.24C659.12 107.12 575.52 90.88 510.48 90.88zM510.64 91.1999999999999" />
    <glyph glyph-name="snapdeal"
      unicode="&#xF13F;"
      horiz-adv-x="1024" d="M986.64 348.56L499.04 353.5199999999999A26.88 26.88 0 0 0 474 368.6399999999999L238.56 772.72C230.08 783.92 216.96 784.56 211.04 774.3199999999999L28.56 333.52A40.96 40.96 0 0 1 31.04 299.44L239.04 -58.08C243.52 -67.28 248.48 -71.04 254.08 -68.8000000000001L663.04 -69.6800000000001C676.48 -73.2 687.04 -70.72 692.88 -59.12L995.2 332.48C1001.28 341.44 996.72 346.16 986.64 348.56zM417.2 609.8399999999999A29.84 29.84 0 0 1 440 598.72L614.96 600.48A30.16 30.16 0 0 0 632.5600000000001 584.48L724.08 432.96A22.48 22.48 0 0 1 744 421.92L982.88 416.32S1002.08 420.72 993.2 447.28L773.9200000000001 818.56A32 32 0 0 1 742.32 839.2L312.8 837.6C300.56 838.56 295.12 822.96 299.52 814z" />
    <glyph glyph-name="soundcloud"
      unicode="&#xF140;"
      horiz-adv-x="1316.026217709806" d="M220.1643860873791 392.1920000000001C218.1163452865662 392.1920000000001 216.0683044857534 391.1680000000001 214.0202636849406 389.6320000000001C212.484233084331 388.0960000000001 211.4602126839246 386.0480000000001 211.4602126839246 383.4880000000002L200.195988279454 249.8560000000002L211.4602126839246 109.0560000000002C211.4602126839246 106.4960000000002 212.484233084331 104.4480000000002 214.0202636849406 102.4000000000002C215.5562942855502 100.8640000000003 217.6043350863631 99.8400000000003 220.1643860873791 99.8400000000003C225.2844880894112 99.8400000000003 228.3565492906304 102.9120000000002 229.3805696910368 109.0560000000003L241.1568042957106 249.8560000000002L229.3805696910368 383.4880000000002C228.3565492906304 389.1200000000002 225.2844880894112 392.1920000000003 220.1643860873791 392.1920000000003zM280.0695795111543 474.1120000000001C278.0215387103415 476.1600000000001 275.9734979095287 477.1840000000001 273.4134469085126 477.1840000000001C267.2693245060742 477.1840000000001 263.6852531046517 473.6000000000001 263.1732429044485 466.944L252.9330389003844 249.8560000000001L263.1732429044485 109.056C263.6852531046517 102.4000000000001 267.2693245060742 98.816 273.4134469085126 98.816C275.9734979095287 98.816 278.5335489105447 99.84 280.0695795111543 101.888S283.1416407123736 106.496 283.1416407123736 109.0559999999999L294.9178753170473 249.856L283.1416407123736 466.944C282.6296305121703 469.5039999999999 282.1176203119672 472.0639999999999 280.0695795111543 474.112zM167.4273354664488 400.896C162.3072334644167 400.896 159.7471824634006 398.336 159.7471824634006 393.216L147.9709478587269 249.344L159.7471824634006 110.0799999999999C159.7471824634006 104.96 162.3072334644167 102.4 167.4273354664488 102.4C172.0354272682776 102.4 174.5954782692936 104.9599999999999 175.6194986697001 110.0799999999999L188.9317638749834 249.344L175.6194986697001 393.216C174.5954782692936 398.8479999999999 172.0354272682776 400.896 167.4273354664488 400.896zM14.848295805893 328.192C12.288244804877 328.192 10.2402040040641 326.6560000000001 9.7281938038609 323.072L0 249.8560000000001L9.7281938038609 177.6640000000001C10.2402040040641 174.0800000000002 12.288244804877 172.5440000000001 14.848295805893 172.5440000000001S19.4563876077219 174.0800000000002 19.9683978079251 177.6640000000001L31.2326222123956 249.8560000000001L19.9683978079251 323.072C19.4563876077219 326.144 17.408346806909 328.192 14.848295805893 328.192zM333.3186403322879 523.7760000000001C331.270599531475 525.8240000000001 328.710548530459 526.848 325.6384873292398 526.848C318.9823547265981 526.848 314.8862731249725 523.264 314.3742629247693 516.096L305.1580793211115 248.832L314.3742629247693 109.568C314.8862731249725 102.4 318.9823547265981 98.8159999999999 325.6384873292398 98.8159999999999C328.710548530459 98.8159999999999 331.2705995314751 99.8399999999999 333.3186403322879 101.8879999999999C335.3666811331007 103.9359999999999 336.3907015335071 106.4959999999999 336.3907015335071 109.568L347.1429157377745 248.832L336.3907015335071 516.096C336.3907015335071 519.1679999999999 335.3666811331007 521.7280000000001 333.3186403322879 523.7760000000001zM115.2022950457216 396.8C111.6182236442992 396.8 109.0581726432831 394.7520000000001 108.5461624430799 390.1440000000001L96.7699278384062 250.3680000000001L108.5461624430799 114.6880000000001C109.0581726432831 110.5920000000001 111.6182236442992 108.5440000000002 115.2022950457216 108.5440000000002C119.2983766473473 108.5440000000002 121.3464174481601 110.5920000000001 121.3464174481601 114.6880000000001L135.6827030538499 250.3680000000002L121.3464174481601 390.1440000000002C121.8584276483633 394.2400000000001 119.8103868475505 396.8000000000002 115.2022950457216 396.8000000000002zM63.4892648251977 373.2480000000001C59.9051934237752 373.2480000000001 58.3691628231656 371.7120000000001 58.3691628231656 368.1280000000002L45.0568976178822 249.8560000000002L58.3691628231656 134.6560000000002C58.3691628231656 131.0720000000002 59.9051934237752 129.0240000000002 63.4892648251977 129.0240000000002C66.5613260264169 129.0240000000002 68.6093668272298 130.5600000000002 69.121377027433 134.1440000000002L83.969672833326 250.3680000000002L69.121377027433 368.6400000000001C68.6093668272298 371.2000000000002 66.5613260264169 373.2480000000001 63.4892648251977 373.2480000000001zM664.0772296635596 629.248C661.5171786625436 631.296 658.4451174613243 632.3199999999999 655.3730562601052 632.3199999999999C651.2769746584795 632.3199999999999 647.1808930568537 630.784 644.1088318556345 628.2239999999999C640.5247604542121 624.6399999999999 637.9647094531961 620.0319999999999 637.4526992529928 614.3999999999999V612.864L630.7965666503511 249.344L634.3806380517736 182.2719999999999L637.9647094531961 117.2479999999999C638.4767196533993 112.1279999999999 640.0127502540089 108.0319999999999 643.5968216554313 104.4479999999999C647.1808930568537 100.8639999999999 651.2769746584795 99.328 656.3970766605115 99.328S665.6132602641692 100.8639999999999 669.1973316655916 104.4479999999999S674.3174336676236 112.1279999999999 674.3174336676236 117.2479999999999L682.509596870875 249.344L673.2934132672173 614.3999999999999C672.2693928668109 621.0559999999998 669.1973316655916 626.1759999999999 664.0772296635596 629.2479999999998zM555.0190570202766 541.6960000000001C551.9469958190573 544.768 548.8749346178381 546.3040000000001 544.2668428160092 546.3040000000001C540.1707612143836 546.3040000000001 536.586689812961 544.768 533.5146286117418 541.6960000000001C530.4425674105227 538.624 528.906536809913 535.0400000000001 528.3945266097098 530.432L521.7383940070681 249.344L528.3945266097098 114.688C528.9065368099131 110.592 530.4425674105227 107.0079999999999 533.5146286117418 103.9359999999999C536.586689812961 100.8639999999999 540.1707612143836 99.328 544.2668428160092 99.328S551.9469958190573 100.8639999999999 555.0190570202766 103.9359999999999C558.0911182214958 107.0079999999999 559.6271488221055 110.5919999999999 559.6271488221055 114.688L567.8193120253568 249.344L559.6271488221055 530.432C559.6271488221055 535.04 558.0911182214958 538.624 555.0190570202766 541.696zM609.2921382418165 597.504C606.2200770405972 599.552 603.148015839378 600.576 600.0759546381587 600.576C597.0038934369395 600.576 593.9318322357202 599.552 590.859771034501 597.504C585.739669032469 594.432 583.179618031453 589.8240000000001 583.179618031453 583.6800000000001L582.6676078312497 580.096L577.0354956290145 249.344C577.0354956290145 248.832 579.0835364298272 203.776 583.179618031453 114.688V114.1759999999999C583.179618031453 110.592 584.2036384318593 107.008 586.7636894328754 104.4479999999999C590.3477608342978 100.352 594.4438424359234 98.304 600.0759546381587 98.304C604.1720362397845 98.304 608.2681178414101 99.8399999999999 611.3401790426293 103.4239999999999C614.9242504440517 105.9839999999999 616.4602810446613 110.0799999999999 616.4602810446613 114.688L616.9722912448646 128.512L623.116413647303 248.832L616.4602810446613 583.68C616.4602810446613 590.336 613.9002300436454 594.432 609.2921382418165 597.5039999999999zM1269.2732863037504 374.784C1237.5286538911516 406.528 1199.6398990761143 422.4 1155.0950116584354 422.4C1133.5905832499006 422.4 1112.598165041569 418.304 1092.1177570334407 409.6C1085.461624430799 482.8159999999999 1055.2530226188098 544.256 1000.4679311970668 594.432C946.1948499755268 644.608 881.6815647499227 669.6959999999999 807.4400857204578 669.6959999999999C771.08736150603 669.6959999999999 736.2706678922119 663.04 704.0140252794098 650.2399999999999C693.2618110751424 646.6559999999998 688.1417090731104 640 688.1417090731104 631.2959999999998V117.76C688.1417090731104 112.6400000000001 689.6777396737201 108.544 693.2618110751424 104.96S700.9419640781906 99.3280000000001 706.0620660802226 98.816H1155.0950116584354C1199.6398990761143 98.816 1237.5286538911516 114.688 1269.2732863037504 145.92C1301.0179187163492 177.1520000000001 1316.8902349226487 215.552 1316.8902349226487 260.096C1316.3782247224456 305.152 1301.0179187163492 343.04 1269.2732863037504 374.784zM388.6157419542342 547.84C386.5677011534214 550.4 383.4956399522021 551.424 379.9115685507797 551.424C376.8395073495605 551.424 374.2794563485444 550.4000000000001 371.7194053475284 547.8400000000001S368.1353339461059 542.2080000000001 368.1353339461059 539.1360000000001L358.9191503424482 249.8560000000002L368.1353339461059 111.6160000000001C368.6473441463092 103.4240000000001 372.7434257479348 99.8400000000002 379.9115685507797 99.8400000000002C387.5917215538278 99.8400000000002 391.6878031554534 103.9360000000002 392.7118235558599 111.6160000000001L402.952027559924 249.8560000000002L392.7118235558599 539.1360000000002C392.1998133556566 542.2080000000001 390.663782755047 545.2800000000002 388.6157419542342 547.8400000000001zM499.2099451981269 551.424C496.1378839969077 553.9839999999999 493.0658227956885 555.52 488.9697411940628 555.52C485.3856697926403 555.52 481.8015983912179 553.984 478.7295371899987 551.424C475.6574759887794 548.864 474.633455588373 545.28 474.633455588373 541.184L466.4412923851216 249.8560000000001L474.633455588373 113.1520000000001C475.1454657885762 109.056 476.6814963891858 105.472 479.2415473902019 102.912S485.3856697926403 98.816 488.9697411940628 98.816S496.1378839969077 100.3520000000001 499.2099451981269 102.912S503.3060267997527 109.0559999999999 503.3060267997527 113.1520000000001L512.0102002032071 249.8560000000001L503.3060267997527 541.184C503.3060267997527 545.28 501.769996199143 548.864 499.2099451981269 551.424zM443.9128435761806 558.0799999999999C441.3527925751646 560.64 438.2807313739453 562.1759999999999 434.6966599725229 562.1759999999999S428.0405273698812 560.6400000000001 425.4804763688652 558.0799999999999S421.3843947672395 551.9359999999999 421.3843947672395 548.3520000000001L413.1922315639882 249.344L421.3843947672395 111.616C421.8964049674427 108.032 423.4324355680523 104.448 425.4804763688652 102.4C428.0405273698812 99.8399999999999 431.1125885711004 98.8159999999999 434.1846497723197 98.8159999999999C442.376812975571 98.8159999999999 446.9849047773998 103.4239999999999 448.0089251778063 112.1279999999999L457.2251087814639 249.856L448.0089251778063 548.864C447.496914977603 552.4479999999999 445.9608843769934 555.52 443.9128435761806 558.0799999999999z" />
    <glyph glyph-name="spotify"
      unicode="&#xF141;"
      horiz-adv-x="1024" d="M781.28333333 116.25A832.5 832.5 0 0 1 195.00833333 174A58.5 58.5 0 0 1 225.00833333 60.9A730.8 730.8 0 0 0 732.75833333 10.125A52.5 52.5 0 0 1 758.10833333 3.225A61.275 61.275 0 0 1 811.2083333300001 35.55A65.325 65.325 0 0 1 781.2083333300001 116.3249999999999zM857.48333333 374.775A1046.25 1046.25 0 0 1 411.9833333300001 476.325A893.7750000000001 893.7750000000001 0 0 1 169.65833333 446.325A58.5 58.5 0 1 1 199.65833333 333.225C264.3083333300001 351.675 333.53333333 358.5750000000001 411.9833333300001 358.5750000000001A923.4 923.4 0 0 0 808.9583333300001 268.575A45.6 45.6 0 0 1 834.3083333300001 263.925A61.275 61.275 0 0 1 887.40833333 296.25C898.9583333300001 328.575 885.0833333300001 363.15 857.40833333 374.7000000000001zM935.93333333 649.425A1241.25 1241.25 0 0 1 141.90833333 734.85A56.7 56.7 0 0 1 98.33333333 665.625A56.7 56.7 0 0 1 167.33333333 621.75A1165.725 1165.725 0 0 0 409.65833333 649.425A1126.5000000000002 1126.5000000000002 0 0 0 887.40833333 545.55A45.675 45.675 0 0 1 912.83333333 540.9A61.275 61.275 0 0 1 965.93333333 573.2249999999999A61.5 61.5 0 0 1 935.93333333 649.425zM935.93333333 649.425" />
    <glyph glyph-name="store"
      unicode="&#xF142;"
      horiz-adv-x="1024" d="M860.975 57.375C860.975 17.25 840.875 -2.625 805.25 -2.625H221.075C187.625 -2.625 167.525 15.225 165.35 48.675C163.1 124.5 165.35 336.3 165.35 409.875C192.125 414.3 221.075 414.3 245.6 425.475C268.1 436.65 285.725 458.925 308 476.775C328.1 440.85 361.55 414 410.6 414C457.4 414 490.85 438.525 515.6 480.9C571.325 389.475 676.1750000000001 393.975 722.975 476.475C743.075 458.625 760.85 436.35 782.975 425.175S834.5 414 863.225 409.65V387.15C860.975 322.5 863.225 121.8 860.975 57.15zM849.5 480.975C791.525 469.8 746.9 498.825 720.2 565.7249999999999C702.725 510 669.5 476.55 611.3000000000001 478.725C560 480.975 528.8 512.175 510.95 563.4749999999999C490.85 505.5 455.225 474 397.25 478.725C350.45 480.975 321.425 507.675 299.1500000000001 563.4749999999999A169.35 169.35 0 0 1 290.225 538.95A110.475 110.475 0 0 0 185.225 476.55A102 102 0 0 0 94.025 554.55A91.05 91.05 0 0 0 96.275 596.925C114.125 650.475 145.325 699.525 163.175 753C167.6 766.3499999999999 176.525 770.85 189.95 770.85H827.45C843.0500000000001 770.85 849.95 766.425 856.4 750.75C874.25 701.7 898.775 657.075 921.05 612.525C952.25 561.2249999999999 907.7 489.9 849.725 480.975z" />
    <glyph glyph-name="story"
      unicode="&#xF143;"
      horiz-adv-x="1024" d="M533.33333333 -53.3333333300001A224.88 224.88 0 0 0 384.69333333 6.10666667H117.33333333C93.33333333 6.10666667 72.69333333 9.0666666699999 54.85333333 23.94666667A79.2 79.2 0 0 0 27.81333333 83.14666667V692.74666667C27.81333333 740.34666667 69.33333333 778.66666667 117.33333333 778.66666667H393.5733333300001A179.28 179.28 0 0 0 533.33333333 713.54666667C566.05333333 755.1466666700001 628.45333333 778.66666667 682.05333333 778.66666667H949.33333333A86.96 86.96 0 0 0 1038.53333333 692.42666667V95.0666666699999A89.44 89.44 0 0 0 949.33333333 5.86666667H682.05333333A224.96 224.96 0 0 0 533.33333333 -53.3333333300001zM117.33333333 719.46666667C105.41333333 719.46666667 87.57333333 701.62666667 87.57333333 689.70666667V95.0666666699999C87.57333333 83.14666667 105.41333333 65.3066666699999 117.33333333 65.3066666699999H387.65333333C414.45333333 65.3066666699999 426.2933333300001 56.34666667 429.2533333300001 50.4266666699999C444.1333333300001 26.4266666699999 485.7333333300001 5.7866666699999 530.37333333 5.7866666699999S616.61333333 26.6666666699999 631.49333333 50.6666666699999C634.4533333300001 56.58666667 649.3333333300001 65.5466666699999 673.0933333300001 65.5466666699999H949.33333333C955.25333333 65.5466666699999 976.13333333 62.58666667 979.09333333 65.5466666699999S979.09333333 89.5466666699999 979.09333333 95.3066666699999V689.7866666699999C979.09333333 695.70666667 982.05333333 716.58666667 979.09333333 719.5466666699999S955.09333333 719.5466666699999 949.33333333 719.5466666699999H682.05333333C625.5733333300001 719.5466666699999 563.0933333300001 654.10666667 563.0933333300001 600.5866666699999V332.90666667A29.76 29.76 0 1 0 503.65333333 332.90666667V600.58666667C503.65333333 654.10666667 441.1733333300001 719.54666667 384.6933333300001 719.54666667zM117.33333333 719.46666667" />
    <glyph glyph-name="studio"
      unicode="&#xF144;"
      horiz-adv-x="1024" d="M1002.32 500.16L678.16 783.2A252.32 252.32 0 0 1 346 783.2L21.68 500.16A43.6 43.6 0 0 1 50.4 424H122.4A19.44 19.44 0 0 0 141.84 404.56V154A232.0000000000001 232.0000000000001 0 0 1 373.12 -77.6H823.52A37.76 37.76 0 0 1 861.2 -39.9200000000001V404.24A19.44 19.44 0 0 0 880.64 424H973.76A43.6 43.6 0 0 1 1002.32 500.4zM534 98.56A145.84 145.84 0 1 0 648.4 212.96A146 146 0 0 0 534 98.56zM534 98.56" />
    <glyph glyph-name="suamusica"
      unicode="&#xF145;"
      horiz-adv-x="1024" d="M278.45333334 636.56L406.45333334 514.64C568.3733333399999 779.12 838.21333334 886.72 838.21333334 886.72V165.04S828.6133333399999 85.04 732.3733333399999 86.48C657.57333334 87.52 636.3733333399999 110.48 636.3733333399999 157.04C635.33333334 246.88 739.0133333399999 240.4 739.0133333399999 240.4H787.0133333399999V716.72S543.09333334 602.88 387.57333334 332.16L317.33333334 421.68V43.1999999999999S319.97333334 -35.36 206.6933333400001 -35.36C121.17333334 -35.36 100.93333334 -5.4400000000001 100.85333334 40C100.85333334 120 182.13333334 124.96 208.29333334 124.96S280.2933333400001 110.56 280.2933333400001 110.56zM483.25333334 -118.72A193.04 193.04 0 0 0 390.21333334 -93.6A22.48 22.48 0 0 0 411.65333334 -54.16C460.6133333399999 -80.72 509.1733333399999 -80.32 555.65333334 -52.88A206.72 206.72 0 0 1 613.33333334 -2.24A22.48 22.48 0 0 0 649.81333334 -28.48A252.56 252.56 0 0 0 578.3733333399999 -91.6800000000001A189.04 189.04 0 0 0 483.25333334 -118.72z" />
    <glyph glyph-name="suamusicaoficial"
      unicode="&#xF146;"
      horiz-adv-x="1024" d="M278.45333334 636.56L406.45333334 514.64C568.3733333399999 779.12 838.21333334 886.72 838.21333334 886.72V165.04S828.6133333399999 85.04 732.3733333399999 86.48C657.57333334 87.52 636.3733333399999 110.48 636.3733333399999 157.04C635.33333334 246.88 739.0133333399999 240.4 739.0133333399999 240.4H787.0133333399999V716.72S543.09333334 602.88 387.57333334 332.16L317.33333334 421.68V43.1999999999999S319.97333334 -35.36 206.6933333400001 -35.36C121.17333334 -35.36 100.93333334 -5.4400000000001 100.85333334 40C100.85333334 120 182.13333334 124.96 208.29333334 124.96S280.2933333400001 110.56 280.2933333400001 110.56zM483.25333334 -118.72A193.04 193.04 0 0 0 390.21333334 -93.6A22.48 22.48 0 0 0 411.65333334 -54.16C460.6133333399999 -80.72 509.1733333399999 -80.32 555.65333334 -52.88A206.72 206.72 0 0 1 613.33333334 -2.24A22.48 22.48 0 0 0 649.81333334 -28.48A252.56 252.56 0 0 0 578.3733333399999 -91.6800000000001A189.04 189.04 0 0 0 483.25333334 -118.72z" />
    <glyph glyph-name="subs"
      unicode="&#xF147;"
      horiz-adv-x="1024" d="M962.86666666 13.5749999999999A758.775 758.775 0 0 1 203.71666666 772.05H186.46666666V648.675A652.5000000000001 652.5000000000001 0 0 0 838.9666666600001 -3.825H962.3416666600002M679.66666666 -4.0500000000001V13.5749999999999A476.1 476.1 0 0 1 203.4166666600001 489.9H186.1666666600001V366.4500000000001A370.1250000000001 370.1250000000001 0 0 0 556.29166666 -3.6750000000001H679.66666666zM186.46666666 101.6999999999999A106.125 106.125 0 1 1 217.51666666 176.6999999999999A105.675 105.675 0 0 1 186.46666666 101.6999999999999z" />
    <glyph glyph-name="telephone"
      unicode="&#xF148;"
      horiz-adv-x="1024" d="M609.68 204.96C611.3599999999999 206 629.5999999999999 217.44 634.9599999999999 220.96A244.24 244.24 0 0 0 661.12 235.12C718.4 261.2 768.96 243.12 835.84 164.64C877.2 116.64 889.44 73.36 873.44 35.1999999999999C861.52 6.64 838.64 -12.8000000000001 797.84 -37.36C795.2 -38.88 771.6800000000001 -52.5600000000001 765.84 -56.32C670.8000000000001 -115.2 453.2 18.88 296.7200000000001 248S99.28 722.64 195.44 782L208.16 790L221.92 798.96C270.56 830.4 301.92 843.04 338.64 836.72S406.88 803.12 433.36 753.44C489.36 648.3199999999999 476.96 598.48 404.9600000000001 553.44C399.76 550.0799999999999 381.44 539.04 379.68 537.9200000000001C362.08 526.88 392 453.76 461.36 352S590.4 193.12 609.68 204.96z" />
    <glyph glyph-name="tidal"
      unicode="&#xF149;"
      horiz-adv-x="1024" d="M856.72 703.30666667C856.72 699.22666667 860.8000000000001 699.22666667 860.8000000000001 695.30666667L1016 540.1066666700001C1020.08 536.02666667 1020.08 536.02666667 1024 536.02666667L852.64 364.6666666700001L685.36 531.94666667L514 360.6666666700001L342.7200000000001 531.94666667L171.36 360.6666666700001L0 531.94666667L4.08 536.0266666699999L163.2 695.1466666700001C163.2 699.22666667 167.28 699.22666667 167.28 703.1466666700001A4 4 0 0 1 171.36 699.06666667L334.56 535.8666666700001L338.64 531.78666667A4 4 0 0 1 342.7200000000001 535.8666666700001L501.84 695.1466666700001L505.92 699.22666667L677.2 527.8666666700001L685.2 535.8666666700001L844.32 694.98666667A31.36 31.36 0 0 1 856.5600000000001 702.98666667zM342.7200000000001 189.3066666699999L510 356.58666667L677.2 189.3066666699999L510 22.0266666699999z" />
    </font>
</defs>
</svg>
